<svg xmlns="http://www.w3.org/2000/svg" viewBox="0 0 480 480"><defs><style>.cls-1{fill:#535b82;}.cls-2{fill:#0adcc8;}.cls-3{fill:#0abec8;}</style></defs><title>meeting</title><g id="Layer_2" data-name="Layer 2"><g id="Layer_5" data-name="Layer 5"><path class="cls-1" d="M8,80H128V96a8,8,0,0,0,13.66,5.66L163.31,80H184a8,8,0,0,0,8-8V8a8,8,0,0,0-8-8H8A8,8,0,0,0,0,8V72A8,8,0,0,0,8,80Zm8-64H176V64H160a8,8,0,0,0-5.66,2.34L144,76.69V72a8,8,0,0,0-8-8H16Z"/><path class="cls-1" d="M312,64h36.69l21.65,21.66A8,8,0,0,0,384,80V64h40a8,8,0,0,0,8-8V8a8,8,0,0,0-8-8H312a8,8,0,0,0-8,8V56A8,8,0,0,0,312,64Zm8-48h96V48H376a8,8,0,0,0-8,8v4.69L357.66,50.34A8,8,0,0,0,352,48H320Z"/><path class="cls-2" d="M40,376V480H56V376h64v96a8,8,0,0,0,8,8h48a8,8,0,0,0,8-8V352a39.58,39.58,0,0,0-8.21-24H232V464H200v16h80V464H248V328h56a39.81,39.81,0,0,0-8,24V472a8,8,0,0,0,8,8h48a8,8,0,0,0,8-8V376h64V480h16V376a40.05,40.05,0,0,0,40-40V232a39.9,39.9,0,0,0-27.35-37.75,56,56,0,1,0-73.3,0A39.9,39.9,0,0,0,352,232v32H288a8,8,0,0,0-8,8v40H203.11l20.48-61.47-15.18-5.07L186.23,312H114l12.45-56H168a8,8,0,0,0,5.66-2.34L219.31,208H225a31.51,31.51,0,0,0-1,8,32,32,0,0,0,64,0,31.51,31.51,0,0,0-1-8h17a8,8,0,0,0,8-8V161.76a8,8,0,0,0-13.37-5.93A15.83,15.83,0,0,1,288,160a16,16,0,0,1,0-32,15.83,15.83,0,0,1,10.63,4.17A8,8,0,0,0,312,126.24V88a8,8,0,0,0-8-8H287a31.51,31.51,0,0,0,1-8,32,32,0,0,0-64,0,31.51,31.51,0,0,0,1,8H208a8,8,0,0,0-8,8v52.69L148.69,192H127.12A56,56,0,1,0,52,194.86,39.94,39.94,0,0,0,27.35,224.7L16,282.78V216H0V336A40.05,40.05,0,0,0,40,376ZM376,152a40,40,0,1,1,40,40A40.05,40.05,0,0,1,376,152ZM296,280h64a8,8,0,0,0,8-8V232a24,24,0,0,1,24-24h48a24,24,0,0,1,24,24V336a24,24,0,0,1-24,24H352a8,8,0,0,0-8,8v96H312V352a24,24,0,0,1,24-24h72a8,8,0,0,0,8-8V248H400v64H296ZM48,152a40,40,0,1,1,40,40A40.05,40.05,0,0,1,48,152ZM22.73,331.78,43.06,227.69A24.06,24.06,0,0,1,66.72,208H152a8,8,0,0,0,5.66-2.34L208,155.31,228.69,176l-64,64H120a8,8,0,0,0-7.81,6.27l-16,72A8,8,0,0,0,104,328h40a24,24,0,0,1,24,24V464H136V368a8,8,0,0,0-8-8H46.32a24,24,0,0,1-23.59-28.22Z"/><path class="cls-3" d="M32,32H64V48H32Z"/><path class="cls-3" d="M80,32H96V48H80Z"/><path class="cls-3" d="M112,32h16V48H112Z"/><path class="cls-3" d="M144,32h16V48H144Z"/></g></g></svg>