<svg xmlns="http://www.w3.org/2000/svg" viewBox="0 0 283.47 58.2"><defs><style>.cls-1{fill:#535b82;}.cls-2{fill:#0abec8;}.cls-3{fill:#0aaac8;}.cls-4{fill:#0adcc8;}</style></defs><title>Asset 1</title><g id="Layer_2" data-name="Layer 2"><g id="Layer_2-2" data-name="Layer 2"><path class="cls-1" d="M95.25,16.6h-4.9c-2.53,0-3.8-1.16-3.8-3.5q0-4.59,7.87-4.59a28.46,28.46,0,0,1,10,1.75V5a31.69,31.69,0,0,0-10-1.54q-13.67,0-13.67,9.62,0,8.74,9.6,8.75h4.9c2.94,0,4.42,1.17,4.42,3.5,0,3.2-2.4,4.81-7.2,4.81a30.4,30.4,0,0,1-10.62-1.75v5.25a34.2,34.2,0,0,0,10.62,1.53q13,0,13-9.84Q105.46,16.6,95.25,16.6Z"/><path class="cls-1" d="M119.52,12q-10.78,0-10.78,11.22Q108.74,35,121.22,35a35.37,35.37,0,0,0,7.39-.66V29.72a37.17,37.17,0,0,1-7,.66q-7.12,0-7.13-4.86h15.24a20.75,20.75,0,0,0,.2-2.84Q130,12,119.52,12Zm4.81,9.49h-9.8c.26-3.29,1.93-4.94,5-4.94s4.81,1.59,4.81,4.76Z"/><path class="cls-1" d="M147,12a10.25,10.25,0,0,0-7.52,3.37L138.8,12h-4.48V35h5.79v-16a8.54,8.54,0,0,1,5.51-2.25q3.78,0,3.78,3.8V35h5.8V20.49Q155.2,12,147,12Z"/><path class="cls-1" d="M164.62,8.29h-4.29V28.78q0,6.19,5.78,6.19h5.16V30.38H168.9c-1.85,0-2.77-1.08-2.77-3.22V16.6h5.14V12h-5.78Z"/><path class="cls-1" d="M187.93,12A9,9,0,0,0,181,14.94V3.7H175.2V35H181v-16a8.56,8.56,0,0,1,5.51-2.25q3.8,0,3.79,3.8V35h5.79V20.49Q196.08,12,187.93,12Z"/><rect class="cls-1" x="201.55" y="3.7" width="5.79" height="4.59"/><rect class="cls-1" x="201.55" y="12.01" width="5.79" height="22.96"/><path class="cls-1" d="M225.53,12A10.25,10.25,0,0,0,218,15.38L217.29,12h-4.48V35h5.79v-16a8.54,8.54,0,0,1,5.51-2.25q3.78,0,3.78,3.8V35h5.79V20.49Q233.68,12,225.53,12Z"/><path class="cls-1" d="M238.06,23.36q0,11.17,10.23,11.17a14.05,14.05,0,0,0,5.55-1.09q0,5.24-6.25,5.24A24.31,24.31,0,0,1,240,37.59v4.59a23.76,23.76,0,0,0,7.52,1.1q12.09,0,12.1-10.06V13A60.16,60.16,0,0,0,250,12Q238.06,12,238.06,23.36Zm15.78,5.18A10.82,10.82,0,0,1,249,29.72c-3.46,0-5.19-2.13-5.19-6.41s2-6.62,6-6.62a12.16,12.16,0,0,1,4,.52Z"/><path class="cls-1" d="M275.81,21.08H272.1c-1.83,0-2.74-.76-2.74-2.29s1.57-2.41,4.7-2.41a22.17,22.17,0,0,1,8.31,1.53V13.1a25.09,25.09,0,0,0-8.15-1.31Q264,11.79,264,19q0,6.89,7,6.88h4.16c1.67,0,2.51.77,2.51,2.3s-1.24,2.4-3.74,2.4a23.64,23.64,0,0,1-8.83-1.53v4.81a26.29,26.29,0,0,0,8.61,1.32q9.75,0,9.76-7.22Q283.47,21.09,275.81,21.08Z"/><path class="cls-2" d="M87.07,49.73H83.45v2.9h3.34V54H83.45v4h-1.6V48.36h5.22Z"/><path class="cls-2" d="M92.21,52.62a1.29,1.29,0,0,0-.82-.22,1.4,1.4,0,0,0-1.16.63,2.77,2.77,0,0,0-.46,1.7V58H88.2V51.13h1.57v1.42h0a2.44,2.44,0,0,1,.71-1.13A1.54,1.54,0,0,1,91.56,51a1.29,1.29,0,0,1,.65.13Z"/><path class="cls-2" d="M98.2,58H96.69V57h0a2.29,2.29,0,0,1-2.1,1.24,2.22,2.22,0,0,1-1.6-.55,2,2,0,0,1-.57-1.47q0-1.95,2.25-2.28l2-.29c0-1-.47-1.48-1.4-1.48a3.34,3.34,0,0,0-2.23.86V51.62A4.79,4.79,0,0,1,95.59,51a2.29,2.29,0,0,1,2.61,2.58Zm-1.51-3.39-1.45.2a2.4,2.4,0,0,0-1,.32,1,1,0,0,0-.34.84.9.9,0,0,0,.31.72A1.2,1.2,0,0,0,95,57a1.51,1.51,0,0,0,1.18-.5,1.74,1.74,0,0,0,.47-1.26Z"/><path class="cls-2" d="M110,58h-1.57V54.27a3.13,3.13,0,0,0-.3-1.57,1.14,1.14,0,0,0-1-.48,1.23,1.23,0,0,0-1,.61,2.48,2.48,0,0,0-.43,1.47V58h-1.57V54.15c0-1.29-.46-1.93-1.37-1.93a1.22,1.22,0,0,0-1,.58,2.54,2.54,0,0,0-.41,1.5V58H99.7V51.13h1.56v1.09h0A2.41,2.41,0,0,1,103.47,51a2.07,2.07,0,0,1,1.25.39,2,2,0,0,1,.73,1,2.47,2.47,0,0,1,2.3-1.43c1.52,0,2.28.94,2.28,2.81Z"/><path class="cls-2" d="M117.37,55h-4.71a2,2,0,0,0,.59,1.48,2.25,2.25,0,0,0,1.55.52,3.4,3.4,0,0,0,2-.66v1.26a4.68,4.68,0,0,1-2.49.59,3.06,3.06,0,0,1-2.39-.94A4.29,4.29,0,0,1,112,52a3.16,3.16,0,0,1,2.38-1,2.72,2.72,0,0,1,2.19.91,3.77,3.77,0,0,1,.77,2.53Zm-1.51-1.11a2,2,0,0,0-.4-1.31,1.34,1.34,0,0,0-1.08-.47,1.53,1.53,0,0,0-1.14.49,2.34,2.34,0,0,0-.58,1.29Z"/><path class="cls-2" d="M124.9,58.2a3.42,3.42,0,0,1-2.56-1,3.5,3.5,0,0,1-1-2.56,3.41,3.41,0,0,1,3.68-3.7,3.28,3.28,0,0,1,2.52,1,3.67,3.67,0,0,1,.9,2.64,3.64,3.64,0,0,1-1,2.65A3.51,3.51,0,0,1,124.9,58.2Zm.07-6a1.79,1.79,0,0,0-1.45.64,2.68,2.68,0,0,0-.53,1.76,2.55,2.55,0,0,0,.54,1.72A1.82,1.82,0,0,0,125,57a1.74,1.74,0,0,0,1.42-.61,3.33,3.33,0,0,0,0-3.51A1.69,1.69,0,0,0,125,52.22Z"/><path class="cls-2" d="M133.35,49.09a1.34,1.34,0,0,0-.72-.19q-1.14,0-1.14,1.29v.94h1.6v1.23h-1.6V58h-1.56V52.36h-1.18V51.13h1.18V50a2.19,2.19,0,0,1,.71-1.72,2.63,2.63,0,0,1,1.79-.64,2.77,2.77,0,0,1,.92.13Z"/><path class="cls-2" d="M147.51,58h-1.57V54.27a3,3,0,0,0-.31-1.57,1.13,1.13,0,0,0-1-.48,1.23,1.23,0,0,0-1,.61,2.48,2.48,0,0,0-.43,1.47V58h-1.57V54.15c0-1.29-.46-1.93-1.37-1.93a1.22,1.22,0,0,0-1,.58,2.54,2.54,0,0,0-.41,1.5V58h-1.56V51.13h1.56v1.09h0A2.4,2.4,0,0,1,141,51a2.09,2.09,0,0,1,1.25.39,2,2,0,0,1,.73,1,2.46,2.46,0,0,1,2.3-1.43c1.52,0,2.28.94,2.28,2.81Z"/><path class="cls-2" d="M149.79,49.68a.94.94,0,0,1-.66-.25.83.83,0,0,1-.27-.63.88.88,0,0,1,.27-.65.94.94,0,0,1,.66-.25,1,1,0,0,1,.68.25.88.88,0,0,1,.27.65.83.83,0,0,1-.27.62A1,1,0,0,1,149.79,49.68Zm.78,8.36H149V51.13h1.57Z"/><path class="cls-2" d="M158.35,58h-1.57V54.15c0-1.3-.45-1.94-1.36-1.94a1.52,1.52,0,0,0-1.19.54,2,2,0,0,0-.46,1.35V58H152.2V51.13h1.57v1.15h0A2.44,2.44,0,0,1,156,51a2.09,2.09,0,0,1,1.72.73,3.33,3.33,0,0,1,.59,2.12Z"/><path class="cls-2" d="M166.13,58h-1.57V56.86h0a2.7,2.7,0,0,1-4.37.41,3.85,3.85,0,0,1-.77-2.52,4.17,4.17,0,0,1,.85-2.75,2.74,2.74,0,0,1,2.25-1,2.17,2.17,0,0,1,2,1.12h0V47.81h1.57Zm-1.55-3.16V54a1.76,1.76,0,0,0-.48-1.25,1.59,1.59,0,0,0-1.22-.51,1.64,1.64,0,0,0-1.38.65,3,3,0,0,0-.5,1.82,2.62,2.62,0,0,0,.48,1.66,1.57,1.57,0,0,0,1.3.61,1.62,1.62,0,0,0,1.3-.59A2.19,2.19,0,0,0,164.58,54.88Z"/><path class="cls-2" d="M9.05,35,0,19.29H22.28L33.42,38.58H15.32A7.22,7.22,0,0,1,9.05,35Z"/><polygon class="cls-3" points="44.55 19.29 33.41 38.59 22.28 19.29 33.41 0 44.55 19.29"/><path class="cls-2" d="M51.52,0H33.42L44.55,19.29H66.83l-9-15.67A7.23,7.23,0,0,0,51.52,0Z"/><path class="cls-4" d="M15.32,0H27.85L19.49,14.47H2.78L9.05,3.62A7.23,7.23,0,0,1,15.32,0Z"/><path class="cls-4" d="M47.34,24.12H64.05L57.78,35a7.22,7.22,0,0,1-6.26,3.61H39Z"/></g></g></svg>