<svg xmlns="http://www.w3.org/2000/svg" viewBox="0 0 1692.63 641.65"><defs><style>.cls-1{isolation:isolate;}.cls-2{fill:#fafafa;}.cls-3{fill:#bdbdbd;}.cls-4{fill:#c4c2c3;}.cls-4,.cls-5,.cls-6,.cls-7{mix-blend-mode:multiply;}.cls-5{fill:#b1d2e0;}.cls-6{fill:#5cc7ff;}.cls-7{fill:#f7edd7;}</style></defs><title>background</title><g class="cls-1"><g id="Layer_2" data-name="Layer 2"><g id="Layer_1-2" data-name="Layer 1"><rect class="cls-2" width="1692.63" height="637.21"/><g id="triangle36"><path class="cls-3" d="M676.36,349.61a.24.24,0,0,1-.16-.05l-88.12-73a.25.25,0,0,1,.2-.44L680.59,291a.25.25,0,0,1,.21.27l-4.19,58.14a.25.25,0,0,1-.15.21A.18.18,0,0,1,676.36,349.61Zm-87.25-72.84,87,72.09,4.14-57.43Z"/></g><g id="triangle36-2" data-name="triangle36"><path class="cls-3" d="M1412,517.77a.24.24,0,0,1-.24-.19L1365.26,342a.25.25,0,0,1,.15-.3.26.26,0,0,1,.32.13l77,168.87a.22.22,0,0,1,0,.21.24.24,0,0,1-.17.14L1412,517.76Zm-45.47-173,45.65,172.47,29.95-6.57Z"/></g><g id="triangle36-3" data-name="triangle36"><path class="cls-3" d="M1412,517.77a.27.27,0,0,1-.19-.08L1283.32,375.48a.23.23,0,0,1-.06-.22.25.25,0,0,1,.15-.18l82-33.34a.23.23,0,0,1,.2,0,.29.29,0,0,1,.13.16l46.47,175.56a.24.24,0,0,1-.12.28Zm-128-142.36,127.53,141.18-46.13-174.28Z"/></g><g id="triangle36-4" data-name="triangle36"><path class="cls-3" d="M680.55,291.47h0L588.2,276.63a.27.27,0,0,1-.2-.19.25.25,0,0,1,.09-.26l121.49-93.27a.24.24,0,0,1,.29,0,.24.24,0,0,1,.1.27L680.8,291.28A.26.26,0,0,1,680.55,291.47Zm-91.69-15.25,91.51,14.72,28.92-107.18Z"/></g><g id="triangle36-5" data-name="triangle36"><path class="cls-3" d="M680.55,291.47a.23.23,0,0,1-.17-.08.24.24,0,0,1-.07-.24L709.49,183a.25.25,0,0,1,.48,0l24,95.11a.26.26,0,0,1,0,.19.21.21,0,0,1-.15.11l-53.19,13ZM709.72,184.1,680.91,290.88,733.43,278Z"/></g><g id="triangle36-6" data-name="triangle36"><path class="cls-3" d="M733.74,278.47h-.09a.26.26,0,0,1-.16-.18l-24-95.11a.23.23,0,0,1,.08-.26.26.26,0,0,1,.27,0l92.56,45.29a.25.25,0,0,1,0,.42l-68.55,49.83A.24.24,0,0,1,733.74,278.47Zm-23.64-94.9,23.79,94.23,67.91-49.37Z"/></g><g id="triangle36-7" data-name="triangle36"><path class="cls-3" d="M501.54,290.63a.27.27,0,0,1-.17-.06.23.23,0,0,1-.08-.2l12.4-190.75a.25.25,0,0,1,.21-.23.26.26,0,0,1,.27.15l74.3,176.74a.24.24,0,0,1,0,.22.25.25,0,0,1-.18.13l-86.7,14Zm12.58-189.91L501.81,290.09l86.08-13.91Z"/></g><g id="triangle36-8" data-name="triangle36"><path class="cls-3" d="M588.24,276.63h-.06a.26.26,0,0,1-.17-.14L513.71,99.74a.26.26,0,0,1,0-.28.26.26,0,0,1,.28,0l195.79,83.47a.24.24,0,0,1,.15.2.27.27,0,0,1-.1.23L588.4,276.58A.3.3,0,0,1,588.24,276.63ZM514.41,100.11,588.35,276l120.89-92.81Z"/></g><g id="triangle36-9" data-name="triangle36"><path class="cls-3" d="M1442.45,511.08h0a.24.24,0,0,1-.21-.14l-77-168.87a.26.26,0,0,1,0-.24.21.21,0,0,1,.22-.11l178.31,10.81a.26.26,0,0,1,.2.14.25.25,0,0,1,0,.25L1442.66,511A.25.25,0,0,1,1442.45,511.08ZM1365.9,342.24l76.59,168.07L1543.36,353Z"/></g><g id="triangle36-10" data-name="triangle36"><path class="cls-3" d="M1122.93,412.42a.25.25,0,0,1-.18-.08.25.25,0,0,1,0-.27l38.83-84.88a.25.25,0,0,1,.22-.14c.07,0,.18.05.23.14l28.83,58a.27.27,0,0,1,0,.2.32.32,0,0,1-.14.14L1123,412.4A.15.15,0,0,1,1122.93,412.42Zm38.83-84.54-38.34,83.83,66.82-26.52Z"/></g><g id="triangle36-11" data-name="triangle36"><path class="cls-3" d="M793.93,290.23h0l-60.19-11.76a.25.25,0,0,1-.1-.45l68.55-49.83a.24.24,0,0,1,.27,0,.23.23,0,0,1,.12.25L794.18,290a.25.25,0,0,1-.11.16A.19.19,0,0,1,793.93,290.23Zm-59.58-12.14,59.37,11.6L802,228.94Z"/></g><g id="triangle36-12" data-name="triangle36"><path class="cls-3" d="M928.86,337a.28.28,0,0,1-.13,0,.25.25,0,0,1-.12-.24l2.63-24.47a.24.24,0,0,1,.15-.2l109.93-46.6a.25.25,0,0,1,.23.44L929,337A.28.28,0,0,1,928.86,337Zm2.86-24.55-2.56,23.81,109.53-69.15Z"/></g><g id="triangle36-13" data-name="triangle36"><path class="cls-3" d="M746.07,353.15h0l-69.71-3.54a.25.25,0,0,1-.18-.08.3.3,0,0,1-.06-.18l4.19-58.15a.24.24,0,0,1,.16-.21.25.25,0,0,1,.27.05l65.52,61.68a.25.25,0,0,1-.18.43Zm-69.44-4,68.78,3.49-64.64-60.86Z"/></g><g id="triangle36-14" data-name="triangle36"><path class="cls-3" d="M746.07,353.15a.23.23,0,0,1-.17-.07L680.38,291.4a.28.28,0,0,1-.07-.25.28.28,0,0,1,.18-.17l53.19-13a.21.21,0,0,1,.19,0,.25.25,0,0,1,.11.17l12.34,74.68a.24.24,0,0,1-.13.26A.24.24,0,0,1,746.07,353.15Zm-65-61.8,64.65,60.86-12.18-73.68Z"/></g><g id="triangle36-15" data-name="triangle36"><path class="cls-3" d="M746.07,353.15H746a.23.23,0,0,1-.18-.2l-12.34-74.68a.26.26,0,0,1,.07-.22.25.25,0,0,1,.22-.06L794,289.74a.23.23,0,0,1,.18.15.26.26,0,0,1,0,.24l-47.86,62.92A.22.22,0,0,1,746.07,353.15Zm-12-74.61,12.19,73.75,47.26-62.14Z"/></g><g id="triangle36-16" data-name="triangle36"><path class="cls-3" d="M959.21,496.86a.25.25,0,0,1-.15-.05.22.22,0,0,1-.1-.18l-9.44-117.06a.23.23,0,0,1,.13-.24.24.24,0,0,1,.28,0l102.5,93.33a.27.27,0,0,1,.08.25.24.24,0,0,1-.18.18l-93.06,23.72Zm-9.15-116.7,9.37,116.13,92.32-23.53Z"/></g><g id="triangle36-17" data-name="triangle36"><path class="cls-3" d="M1052.27,473.14a.27.27,0,0,1-.17-.06L949.6,379.74a.25.25,0,0,1,.26-.42L1104,444.27a.23.23,0,0,1,.15.21.24.24,0,0,1-.13.24l-51.59,28.39ZM951,380.35l101.29,92.23,51-28.05Z"/></g><g id="triangle36-18" data-name="triangle36"><path class="cls-3" d="M1103.86,444.75l-.09,0-154.1-65a.24.24,0,0,1-.14-.3.24.24,0,0,1,.28-.17L1123,411.93a.23.23,0,0,1,.18.14.27.27,0,0,1,0,.23l-19.07,32.32A.26.26,0,0,1,1103.86,444.75ZM952,380.23l151.74,63.95,18.77-31.83Z"/></g><g id="triangle36-19" data-name="triangle36"><path class="cls-3" d="M949.76,379.8h0a.25.25,0,0,1-.2-.14l-20.91-42.81a.25.25,0,0,1,.1-.32l112.55-71.07a.25.25,0,0,1,.33.37L950,379.71A.25.25,0,0,1,949.76,379.8Zm-20.58-43,20.64,42.26,90.46-112.41Z"/></g><g id="triangle36-20" data-name="triangle36"><path class="cls-3" d="M1103.86,444.75a.23.23,0,0,1-.2-.11.24.24,0,0,1,0-.27l19.07-32.32a.24.24,0,0,1,.3-.11l51.33,18.81a.25.25,0,0,1,.16.25.25.25,0,0,1-.2.23l-70.4,13.51ZM1123,412.48l-18.68,31.67,69-13.24Z"/></g><g id="triangle36-21" data-name="triangle36"><path class="cls-3" d="M1412,517.77h-.09l-237.71-86.54a.27.27,0,0,1-.16-.22.25.25,0,0,1,.14-.24l109.24-55.67a.25.25,0,0,1,.3.06l128.46,142.2a.26.26,0,0,1,0,.31A.26.26,0,0,1,1412,517.77Zm-237.08-86.83,236.22,86L1283.45,375.62Z"/></g><g id="triangle36-22" data-name="triangle36"><path class="cls-3" d="M1174.26,431.23h-.09l-51.33-18.81a.26.26,0,0,1-.16-.23.25.25,0,0,1,.16-.24l67.65-26.85a.25.25,0,0,1,.27.05.25.25,0,0,1,.06.26l-16.33,45.67a.24.24,0,0,1-.12.14Zm-50.63-19.07,50.48,18.5,16.05-44.91Z"/></g><g id="triangle36-23" data-name="triangle36"><path class="cls-3" d="M1174.26,431.23a.25.25,0,0,1-.24-.33l16.33-45.67a.24.24,0,0,1,.21-.16l92.92-10a.24.24,0,0,1,.26.17.26.26,0,0,1-.12.3l-109.25,55.67Zm16.51-45.68-16.06,44.92,107.47-54.76Z"/></g><g id="triangle36-24" data-name="triangle36"><path class="cls-3" d="M959.21,496.86h0l-62.09-6.8a.25.25,0,0,1-.2-.13.24.24,0,0,1,0-.22l52.65-110.26a.25.25,0,0,1,.47.08l9.44,117.06a.25.25,0,0,1-.07.2A.23.23,0,0,1,959.21,496.86Zm-61.72-7.26,61.44,6.73L949.59,380.5Z"/></g><g id="triangle36-25" data-name="triangle36"><path class="cls-3" d="M1318.66,608.47a.28.28,0,0,1-.13,0l-155.63-86a.25.25,0,0,1-.12-.28.24.24,0,0,1,.24-.19L1412,517.27a.25.25,0,0,1,.18.43l-93.31,90.7A.28.28,0,0,1,1318.66,608.47Zm-154.7-86,154.65,85.43,92.73-90.13Z"/></g><g id="triangle36-26" data-name="triangle36"><path class="cls-3" d="M1163,522.5l-.1,0-110.76-49.36a.25.25,0,0,1-.14-.22.24.24,0,0,1,.13-.23l51.59-28.39a.25.25,0,0,1,.32.07l59.16,77.75a.24.24,0,0,1,0,.3A.28.28,0,0,1,1163,522.5Zm-110.19-49.63,109.4,48.75-58.44-76.8Z"/></g><g id="triangle36-27" data-name="triangle36"><path class="cls-3" d="M1163,522.5a.26.26,0,0,1-.2-.1l-59.16-77.75a.26.26,0,0,1,.16-.4l70.39-13.51a.25.25,0,0,1,.22.06.24.24,0,0,1,.08.21l-11.24,91.27a.26.26,0,0,1-.18.21Zm-58.71-77.83,58.54,76.94L1174,431.29Z"/></g><g id="triangle36-28" data-name="triangle36"><path class="cls-3" d="M1163,522.5a.25.25,0,0,1-.19-.09.26.26,0,0,1-.06-.19L1174,431a.25.25,0,0,1,.12-.18.24.24,0,0,1,.22,0l237.7,86.54a.24.24,0,0,1,.17.27.26.26,0,0,1-.25.21L1163,522.5Zm11.45-91.17L1163.3,522l247.32-4.69Z"/></g><g id="triangle36-29" data-name="triangle36"><path class="cls-3" d="M897.11,490.06h0a.25.25,0,0,1-.23-.15l-47.45-115.2a.29.29,0,0,1,0-.24.24.24,0,0,1,.22-.1l100.11,4.93a.25.25,0,0,1,.2.13.24.24,0,0,1,0,.23L897.34,489.92A.24.24,0,0,1,897.11,490.06ZM850,374.89,897.13,489.2l52.25-109.42Z"/></g><g id="triangle36-30" data-name="triangle36"><path class="cls-3" d="M849.66,374.87h0L746,353.15a.26.26,0,0,1-.18-.16.24.24,0,0,1,0-.24l47.85-62.92a.32.32,0,0,1,.21-.1.27.27,0,0,1,.2.11l55.73,84.64a.28.28,0,0,1,0,.28A.26.26,0,0,1,849.66,374.87ZM746.51,352.74l102.61,21.51-55.21-83.84Z"/></g><g id="triangle36-31" data-name="triangle36"><path class="cls-3" d="M949.76,379.8h0l-100.1-4.93a.25.25,0,0,1-.1-.48l79.2-37.88a.25.25,0,0,1,.33.12L950,379.44a.25.25,0,0,1,0,.25A.24.24,0,0,1,949.76,379.8Zm-99.1-5.38,98.69,4.86-20.61-42.21Z"/></g><g id="triangle36-32" data-name="triangle36"><path class="cls-3" d="M849.66,374.87h0a.34.34,0,0,1-.17-.11l-55.73-84.64a.23.23,0,0,1,0-.27.23.23,0,0,1,.25-.11L931.53,312a.27.27,0,0,1,.2.19.26.26,0,0,1-.09.26l-81.83,62.35A.27.27,0,0,1,849.66,374.87Zm-55.21-84.55,55.27,83.94,81.15-61.84Z"/></g><g id="triangle36-33" data-name="triangle36"><path class="cls-3" d="M849.66,374.87a.22.22,0,0,1-.21-.12.25.25,0,0,1,.06-.33l81.82-62.35a.26.26,0,0,1,.41.22l-2.63,24.47a.23.23,0,0,1-.14.2l-79.2,37.88A.23.23,0,0,1,849.66,374.87Zm81.52-62.05-79.44,60.52,76.89-36.77Zm-2.32,23.92Z"/></g><g id="triangle36-34" data-name="triangle36"><path class="cls-3" d="M1122.93,412.42h0L949.72,379.8a.25.25,0,0,1,0-.48l163-61.76a.28.28,0,0,1,.22,0,.26.26,0,0,1,.12.19l10.17,94.38a.26.26,0,0,1-.08.21A.27.27,0,0,1,1122.93,412.42ZM950.68,379.47l172,32.39-10.1-93.71Z"/></g><g id="triangle36-35" data-name="triangle36"><path class="cls-3" d="M949.76,379.8a.25.25,0,0,1-.2-.1.25.25,0,0,1,0-.3l91.65-113.89a.26.26,0,0,1,.35,0l71.34,52.13a.25.25,0,0,1,.1.23.27.27,0,0,1-.16.2l-163,61.76ZM1041.46,266,950.54,379l161.7-61.26Z"/></g><g id="triangle36-36" data-name="triangle36"><path class="cls-3" d="M1122.93,412.42h0a.25.25,0,0,1-.21-.22l-10.17-94.38a.26.26,0,0,1,.08-.21.29.29,0,0,1,.22-.06l49,9.5a.27.27,0,0,1,.18.13.28.28,0,0,1,0,.22l-38.82,84.88A.24.24,0,0,1,1122.93,412.42ZM1113,318.11l10,93.13,38.31-83.76Z"/></g><g id="triangle36-37" data-name="triangle36"><path class="cls-3" d="M931.49,312.52a.33.33,0,0,1-.14,0,.24.24,0,0,1-.11-.2L928.44,246a.25.25,0,0,1,.09-.2.24.24,0,0,1,.2-.06l112.73,19.71a.27.27,0,0,1,.21.22.25.25,0,0,1-.15.26L931.58,312.5ZM929,246.26l2.77,65.64,108.82-46.13Z"/></g><g id="triangle36-38" data-name="triangle36"><path class="cls-3" d="M931.49,312.52h0L793.89,290.23a.25.25,0,0,1-.21-.23.24.24,0,0,1,.17-.25L884,258.61a.25.25,0,0,1,.27.07l47.45,53.42a.24.24,0,0,1,0,.29A.23.23,0,0,1,931.49,312.52ZM795,289.89l135.88,22L884,259.14Z"/></g><g id="triangle36-39" data-name="triangle36"><path class="cls-3" d="M793.93,290.23a.28.28,0,0,1-.16-.05.26.26,0,0,1-.09-.23L802,228.36a.23.23,0,0,1,.12-.18.22.22,0,0,1,.21,0l81.75,30.45a.25.25,0,0,1,.16.24.25.25,0,0,1-.17.23L794,290.22Zm8.56-61.5-8.26,60.88,89.06-30.77Z"/></g><g id="triangle36-40" data-name="triangle36"><path class="cls-3" d="M931.49,312.52a.25.25,0,0,1-.19-.09L883.85,259a.24.24,0,0,1,.11-.4l44.66-12.89a.25.25,0,0,1,.22,0,.23.23,0,0,1,.1.19l2.8,66.31a.26.26,0,0,1-.16.24Zm-47-53.54,46.73,52.6-2.76-65.29Z"/></g><g id="triangle36-41" data-name="triangle36"><path class="cls-3" d="M368.5,507.68h-.08L207.43,454a.27.27,0,0,1-.18-.25.26.26,0,0,1,.2-.23l135.61-29a.26.26,0,0,1,.29.17l25.38,82.66a.23.23,0,0,1-.06.25A.23.23,0,0,1,368.5,507.68Zm-160-53.86L368.11,507l-25.17-82Z"/></g><g id="triangle36-42" data-name="triangle36"><path class="cls-3" d="M1475.92,345.71a.25.25,0,0,1-.21-.1L1317.3,127.77a.26.26,0,0,1,0-.34.25.25,0,0,1,.34,0l197,192.25a.24.24,0,0,1,.07.2.27.27,0,0,1-.11.18l-38.57,25.6A.22.22,0,0,1,1475.92,345.71ZM1319.45,129.86,1476,345.12l38.11-25.29Z"/></g><g id="triangle36-43" data-name="triangle36"><path class="cls-3" d="M1475.92,345.71l-.12,0L1221.89,217.93a.26.26,0,0,1-.13-.19.23.23,0,0,1,.07-.22l95.5-90.08a.26.26,0,0,1,.2-.07.25.25,0,0,1,.18.1l158.41,217.84a.25.25,0,0,1,0,.31A.25.25,0,0,1,1475.92,345.71ZM1222.43,217.64l252.68,127.13L1317.47,128Z"/></g><g id="triangle36-44" data-name="triangle36"><path class="cls-3" d="M207.5,454a.26.26,0,0,1-.2-.1.26.26,0,0,1,0-.28l118-194.13a.26.26,0,0,1,.27-.12.24.24,0,0,1,.19.22l17.64,165.15a.25.25,0,0,1-.2.27l-135.6,29ZM325.31,260.39,208,453.4l134.82-28.82Z"/></g><g id="triangle36-45" data-name="triangle36"><path class="cls-3" d="M343.11,425a.19.19,0,0,1-.1,0,.24.24,0,0,1-.15-.2L325.23,259.65a.25.25,0,0,1,.16-.26.26.26,0,0,1,.29.09l84.21,118.66a.25.25,0,0,1,0,.19.27.27,0,0,1-.1.16L343.26,425A.3.3,0,0,1,343.11,425ZM325.83,260.55l17.49,163.78,66-46.11Z"/></g><g id="triangle36-46" data-name="triangle36"><path class="cls-3" d="M409.68,378.53a.26.26,0,0,1-.2-.1L325.27,259.77a.26.26,0,0,1,0-.27.27.27,0,0,1,.24-.12l152.28,13a.26.26,0,0,1,.2.14.28.28,0,0,1,0,.25L409.89,378.42a.23.23,0,0,1-.2.11ZM326,259.92l83.68,117.92,67.65-105Z"/></g><g id="triangle36-47" data-name="triangle36"><path class="cls-3" d="M95.11,519.88l-.09,0a.23.23,0,0,1-.14-.16L9.73,249.29a.23.23,0,0,1,.11-.29.23.23,0,0,1,.3,0L207.68,453.59a.23.23,0,0,1,.07.21.25.25,0,0,1-.12.18L95.24,519.84A.2.2,0,0,1,95.11,519.88ZM10.52,250.15l84.74,269.1L207.1,453.71Z"/></g><g id="triangle36-48" data-name="triangle36"><path class="cls-3" d="M207.5,454a.26.26,0,0,1-.18-.07L9.78,249.38a.23.23,0,0,1,0-.27A.25.25,0,0,1,10,249l315.51,10.42a.26.26,0,0,1,.22.13.25.25,0,0,1,0,.25l-118,194.13a.25.25,0,0,1-.19.12ZM10.57,249.48,207.46,453.36,325,259.86Z"/></g><g id="triangle36-49" data-name="triangle36"><path class="cls-3" d="M1514.48,320.12a.25.25,0,0,1-.17-.08l-197-192.24a.26.26,0,0,1-.07-.24.28.28,0,0,1,.17-.18l252.36-80.67a.28.28,0,0,1,.25.06.23.23,0,0,1,.07.23l-55.38,272.91a.25.25,0,0,1-.17.19ZM1318,127.73l196.35,191.64,55.21-272Z"/></g><g id="triangle36-50" data-name="triangle36"><path class="cls-3" d="M1019.72,355l-.11,0a.27.27,0,0,1-.14-.24l8.17-138.19a.24.24,0,0,1,.15-.22.25.25,0,0,1,.27,0l71,64.77a.21.21,0,0,1,.09.18.27.27,0,0,1-.08.19L1019.89,355A.23.23,0,0,1,1019.72,355Zm8.39-137.9-8.1,137,78.5-72.81Z"/></g><g id="triangle36-51" data-name="triangle36"><path class="cls-3" d="M409.68,378.53a.23.23,0,0,1-.2-.11.24.24,0,0,1,0-.27l68.08-105.67a.25.25,0,0,1,.25-.12.26.26,0,0,1,.2.19l21.47,89.66a.22.22,0,0,1,0,.19.25.25,0,0,1-.17.11l-89.54,16Zm68-105.29L410.21,377.93l88.71-15.86Z"/></g><g id="triangle36-52" data-name="triangle36"><path class="cls-3" d="M710.89,354.81h0a.26.26,0,0,1-.2-.18l-9.49-35.25a.24.24,0,0,1,.07-.24l127-123.39a.25.25,0,0,1,.34,0,.24.24,0,0,1,0,.33L711.09,354.71A.25.25,0,0,1,710.89,354.81Zm-9.21-35.42L711,354,826.4,198.24Z"/></g><g id="triangle36-53" data-name="triangle36"><path class="cls-3" d="M368.5,507.68a.22.22,0,0,1-.24-.17l-25.39-82.66a.26.26,0,0,1,.07-.26.26.26,0,0,1,.27,0l123.68,50.16a.24.24,0,0,1,.16.24.23.23,0,0,1-.17.22l-98.31,32.5Zm-25-82.47,25.15,81.91,97.41-32.21Z"/></g><g id="triangle36-54" data-name="triangle36"><path class="cls-3" d="M466.8,475.19l-.09,0L343,425a.25.25,0,0,1-.16-.2.25.25,0,0,1,.11-.24l66.57-46.49a.25.25,0,0,1,.36.08L467,474.81a.24.24,0,0,1,0,.29A.25.25,0,0,1,466.8,475.19ZM343.63,424.72l122.58,49.71-56.6-95.79Z"/></g><g id="triangle36-55" data-name="triangle36"><path class="cls-3" d="M466.8,475.19a.26.26,0,0,1-.22-.13l-57.11-96.65a.24.24,0,0,1,0-.23.22.22,0,0,1,.18-.14l89.54-16a.22.22,0,0,1,.23.08.24.24,0,0,1,.06.23L467,475a.28.28,0,0,1-.21.18Zm-56.72-96.73,56.64,95.85,32.16-111.73Z"/></g><g id="triangle36-56" data-name="triangle36"><path class="cls-3" d="M838.6,559.61h-.06a.23.23,0,0,1-.17-.13L762.54,402.66a.24.24,0,0,1,0-.28.25.25,0,0,1,.27-.06l191.81,74.1a.24.24,0,0,1,.15.2.28.28,0,0,1-.1.24l-116,82.71A.23.23,0,0,1,838.6,559.61ZM763.27,403l75.42,156L954,476.72Z"/></g><g id="triangle36-57" data-name="triangle36"><path class="cls-3" d="M954.57,476.9h-.09l-191.81-74.1a.26.26,0,0,1,.1-.49l247.93,7.17a.25.25,0,0,1,.18.41l-56.12,66.93A.25.25,0,0,1,954.57,476.9Zm-190.36-74,190.28,73.5,55.67-66.4Z"/></g><g id="triangle36-58" data-name="triangle36"><path class="cls-3" d="M1010.69,410h0L762.76,402.8a.25.25,0,0,1,0-.49l257-47.76a.26.26,0,0,1,.22.06.29.29,0,0,1,.07.22l-9,54.93A.27.27,0,0,1,1010.69,410Zm-245.58-7.6,245.37,7.09,8.94-54.36Z"/></g><g id="triangle36-59" data-name="triangle36"><path class="cls-3" d="M762.76,402.8a.27.27,0,0,1-.17-.06l-51.87-48a.26.26,0,0,1,0-.33L828.23,195.77a.27.27,0,0,1,.32-.08.25.25,0,0,1,.12.3L763,402.63a.26.26,0,0,1-.17.17Zm-51.53-48.27,51.42,47.57,65.09-204.83Z"/></g><g id="triangle36-60" data-name="triangle36"><path class="cls-3" d="M1010.69,410a.33.33,0,0,1-.14,0,.28.28,0,0,1-.11-.25l9-54.93a.26.26,0,0,1,.25-.21l81.06-1.51h0a.25.25,0,0,1,.24.17.26.26,0,0,1-.11.29l-90.1,56.44A.33.33,0,0,1,1010.69,410Zm9.24-54.93-8.9,54.17,88.86-55.67Z"/></g><g id="triangle36-61" data-name="triangle36"><path class="cls-3" d="M1100.79,353.53a.25.25,0,0,1-.23-.15.26.26,0,0,1,0-.27l121.22-135.57a.23.23,0,0,1,.29-.06L1476,345.24a.24.24,0,0,1,.13.28.25.25,0,0,1-.24.19l-375.13,7.82ZM1222.06,218l-120.7,135,373.54-7.78Z"/></g><g id="triangle36-62" data-name="triangle36"><path class="cls-3" d="M1019.72,355a.25.25,0,0,1-.23-.16.25.25,0,0,1,.06-.27l79.16-73.42a.23.23,0,0,1,.26-.05.28.28,0,0,1,.16.23l1.91,71.9a.24.24,0,0,1-.07.18.3.3,0,0,1-.18.08L1019.73,355Zm78.92-73.11-78.27,72.6,80.16-1.5Z"/></g><g id="triangle36-63" data-name="triangle36"><path class="cls-3" d="M1100.79,353.53l-.09,0a.26.26,0,0,1-.16-.23l-1.91-71.9a.24.24,0,0,1,.13-.23l123.13-63.67a.26.26,0,0,1,.31.07.26.26,0,0,1,0,.32L1101,353.44A.25.25,0,0,1,1100.79,353.53Zm-1.66-72,1.89,71.12,119.89-134.09Z"/></g><g id="triangle36-64" data-name="triangle36"><path class="cls-3" d="M749.09,583.51a.28.28,0,0,1-.16,0,.26.26,0,0,1-.09-.22l13.68-180.71a.23.23,0,0,1,.2-.22.25.25,0,0,1,.27.13l75.83,156.81a.24.24,0,0,1,0,.22.28.28,0,0,1-.17.13l-89.51,23.9Zm13.85-180L749.36,582.93l88.88-23.73Z"/></g><g id="triangle36-65" data-name="triangle36"><path class="cls-3" d="M1395.52,521.17h0l-261.33-35.41a.25.25,0,0,1-.21-.22.23.23,0,0,1,.15-.26l341.72-140a.25.25,0,0,1,.28.06.24.24,0,0,1,0,.28L1395.75,521A.24.24,0,0,1,1395.52,521.17Zm-260.37-35.78,260.22,35.26,80.05-174.72Z"/></g><g id="triangle36-66" data-name="triangle36"><path class="cls-3" d="M1134.19,485.76h0L954.55,476.9a.23.23,0,0,1-.21-.15.25.25,0,0,1,0-.26l56.13-66.93a.25.25,0,0,1,.32-.06l123.5,75.8a.23.23,0,0,1,.11.28A.25.25,0,0,1,1134.19,485.76Zm-179.11-9.33,178.15,8.78L1010.74,410Z"/></g><g id="triangle36-67" data-name="triangle36"><path class="cls-3" d="M1134.19,485.76a.22.22,0,0,1-.13,0l-123.5-75.79a.24.24,0,0,1,0-.42l90.1-56.45a.24.24,0,0,1,.22,0,.25.25,0,0,1,.15.17l33.41,132.24a.26.26,0,0,1-.1.26A.27.27,0,0,1,1134.19,485.76Zm-123-76L1133.8,485l-33.17-131.3Z"/></g><g id="triangle36-68" data-name="triangle36"><path class="cls-3" d="M1134.19,485.76a.23.23,0,0,1-.11,0,.26.26,0,0,1-.13-.16l-33.4-132.23a.24.24,0,0,1,0-.22.25.25,0,0,1,.19-.09l375.13-7.82h0a.25.25,0,0,1,.24.2.24.24,0,0,1-.15.28L1134.29,485.74Zm-33.08-132.24,33.25,131.65,340.22-139.43Z"/></g><g id="triangle36-69" data-name="triangle36"><path class="cls-3" d="M749.09,583.51a.24.24,0,0,1-.18-.07L621.51,449.59a.25.25,0,0,1-.07-.23.28.28,0,0,1,.17-.18l141.08-46.86a.24.24,0,0,1,.32.25L749.34,583.28a.25.25,0,0,1-.17.22Zm-127-134L748.88,582.68l13.61-179.77Z"/></g><g id="triangle36-70" data-name="triangle36"><path class="cls-3" d="M466.8,475.19a.25.25,0,0,1-.19-.09.24.24,0,0,1-.05-.23L499,362.2a.25.25,0,0,1,.16-.17.22.22,0,0,1,.22,0l122.46,87.15a.26.26,0,0,1,.1.26.23.23,0,0,1-.2.19L466.84,475.18Zm32.57-112.52-32.22,112,153.9-25.36Z"/></g><g id="triangle36-71" data-name="triangle36"><path class="cls-3" d="M621.69,449.67a.24.24,0,0,1-.21-.12.26.26,0,0,1,0-.31l89.21-94.85a.25.25,0,0,1,.35,0l51.87,48a.24.24,0,0,1,.08.24.26.26,0,0,1-.17.18L621.77,449.65Zm89.22-94.76-88.36,94,139.73-46.42Z"/></g><g id="triangle36-72" data-name="triangle36"><path class="cls-3" d="M621.69,449.67a.27.27,0,0,1-.15-.05L499.08,362.47a.25.25,0,0,1,.1-.45l202.17-43a.28.28,0,0,1,.26.1.26.26,0,0,1,0,.28L621.9,449.55a.25.25,0,0,1-.16.11ZM499.84,362.39l121.77,86.67,79.27-129.39Z"/></g><g id="triangle36-73" data-name="triangle36"><path class="cls-3" d="M621.69,449.67a.3.3,0,0,1-.16-.05.26.26,0,0,1-.06-.33l79.72-130.11a.24.24,0,0,1,.25-.12.25.25,0,0,1,.2.18l9.49,35.25a.24.24,0,0,1-.06.24l-89.2,94.86A.27.27,0,0,1,621.69,449.67Zm79.62-129.73L623.17,447.47l87.45-93Z"/></g><g id="triangle36-74" data-name="triangle36"><path class="cls-3" d="M762.76,402.8a.24.24,0,0,1-.22-.14.23.23,0,0,1,.06-.29L954.87,229.55a.29.29,0,0,1,.22-.06.26.26,0,0,1,.17.14l64.68,125.05a.24.24,0,0,1,0,.22.31.31,0,0,1-.18.14l-257,47.76ZM955,230.14l-191.38,172,255.75-47.54Z"/></g><g id="triangle36-75" data-name="triangle36"><path class="cls-3" d="M762.76,402.8a.22.22,0,0,1-.13,0,.23.23,0,0,1-.1-.28L828.2,195.84a.25.25,0,0,1,.3-.17L955.11,229.5a.23.23,0,0,1,.17.18.24.24,0,0,1-.07.25L762.93,402.74A.27.27,0,0,1,762.76,402.8ZM828.6,196.22,763.28,401.75,954.53,229.86Z"/></g><g id="triangle36-76" data-name="triangle36"><path class="cls-3" d="M1019.72,355a.25.25,0,0,1-.22-.13L954.82,229.85a.22.22,0,0,1,0-.22.26.26,0,0,1,.18-.14l72.84-13.14a.25.25,0,0,1,.21.06.27.27,0,0,1,.09.21L1020,354.81a.27.27,0,0,1-.2.23Zm-64.3-125.11,64.11,123.94,8.09-137Z"/></g><g id="triangle36-77" data-name="triangle36"><path class="cls-3" d="M701.4,319.56h0a.25.25,0,0,1-.18-.14l-39.42-90.19a.28.28,0,0,1,0-.22.24.24,0,0,1,.18-.13l166.45-33.2a.27.27,0,0,1,.28.13.24.24,0,0,1,0,.29l-127,123.4A.29.29,0,0,1,701.4,319.56ZM662.33,229.3l39.16,89.58L827.65,196.33Z"/></g><g id="triangle36-78" data-name="triangle36"><path class="cls-3" d="M499.23,362.51a.25.25,0,0,1-.23-.14.25.25,0,0,1,.07-.3L607,270.69a.28.28,0,0,1,.28,0l94.27,48.43a.26.26,0,0,1,.13.25.23.23,0,0,1-.2.21l-202.17,43Zm107.94-91.33-107,90.63,200.51-42.6Z"/></g><g id="triangle36-79" data-name="triangle36"><path class="cls-3" d="M499.23,362.51h-.08a.24.24,0,0,1-.16-.18l-21.48-89.65a.23.23,0,0,1,.05-.21.24.24,0,0,1,.19-.1l129.38-1.73a.29.29,0,0,1,.24.17.27.27,0,0,1-.08.28l-107.9,91.38A.3.3,0,0,1,499.23,362.51Zm-21.16-89.65,21.31,88.95,107.06-90.67Z"/></g><g id="triangle36-80" data-name="triangle36"><path class="cls-3" d="M701.4,319.56a.2.2,0,0,1-.11,0L607,271.11a.26.26,0,0,1-.14-.2.23.23,0,0,1,.1-.22l54.84-41.77a.25.25,0,0,1,.22,0,.25.25,0,0,1,.16.14l39.43,90.2a.24.24,0,0,1-.06.28A.22.22,0,0,1,701.4,319.56Zm-93.8-48.72,93.29,47.93-39-89.26Z"/></g><path class="cls-4" d="M1352.8,382.45a8.9,8.9,0,1,1-8.9-9.17A9,9,0,0,1,1352.8,382.45Z"/><path class="cls-4" d="M1310.4,321.77a8.85,8.85,0,1,1-8.85-9.13A9,9,0,0,1,1310.4,321.77Z"/><path class="cls-4" d="M1543.36,469.26a8.36,8.36,0,1,1-8.36-8.62A8.49,8.49,0,0,1,1543.36,469.26Z"/><ellipse class="cls-4" cx="1334.56" cy="495.36" rx="8.62" ry="8.89"/><ellipse class="cls-4" cx="1175.91" cy="423.73" rx="4.61" ry="4.75"/><ellipse class="cls-4" cx="775.73" cy="406.85" rx="13.97" ry="14.4"/><path class="cls-4" d="M1017.62,453.1a5,5,0,1,1-5-5.13A5.06,5.06,0,0,1,1017.62,453.1Z"/><path class="cls-4" d="M1020.68,517.53a10.83,10.83,0,1,1-10.82-11.16A11,11,0,0,1,1020.68,517.53Z"/><path class="cls-4" d="M764,190.31a5.5,5.5,0,1,1-5.5-5.67A5.58,5.58,0,0,1,764,190.31Z"/><path class="cls-4" d="M740.34,491.39a11,11,0,1,1-11-11.35A11.19,11.19,0,0,1,740.34,491.39Z"/><ellipse class="cls-4" cx="508.41" cy="333.48" rx="7.8" ry="8.04"/><path class="cls-4" d="M533.7,599.93a7.92,7.92,0,1,1-7.91-8.16A8,8,0,0,1,533.7,599.93Z"/><ellipse class="cls-4" cx="148.08" cy="443.01" rx="13.55" ry="13.97"/><path class="cls-4" d="M33.45,281.33A11.62,11.62,0,0,1,22,293.13a11.8,11.8,0,0,1,0-23.59A11.62,11.62,0,0,1,33.45,281.33Z"/><path class="cls-4" d="M93.13,213.27a10.88,10.88,0,1,1-10.87-11.22A11,11,0,0,1,93.13,213.27Z"/><path class="cls-5" d="M1531.92,512.22a4.06,4.06,0,1,1-4.06-4.19A4.12,4.12,0,0,1,1531.92,512.22Z"/><path class="cls-5" d="M1395.83,593.36a8.13,8.13,0,1,1-8.13-8.38A8.26,8.26,0,0,1,1395.83,593.36Z"/><path class="cls-5" d="M1187.54,206.06a11.94,11.94,0,1,1-11.93-12.3A12.12,12.12,0,0,1,1187.54,206.06Z"/><ellipse class="cls-5" cx="1165.62" cy="301.27" rx="6.44" ry="6.64"/><path class="cls-5" d="M935.24,194.56a7.13,7.13,0,1,1-7.13-7.35A7.25,7.25,0,0,1,935.24,194.56Z"/><ellipse class="cls-5" cx="867.37" cy="239.51" rx="12.86" ry="13.26"/><path class="cls-5" d="M741.28,552.93a9.89,9.89,0,1,1-9.89-10.19A10,10,0,0,1,741.28,552.93Z"/><ellipse class="cls-5" cx="539.96" cy="389.45" rx="10.81" ry="11.15"/><path class="cls-5" d="M637.22,219A10.23,10.23,0,1,1,627,208.46,10.39,10.39,0,0,1,637.22,219Z"/><path class="cls-5" d="M347.88,391.31a11.42,11.42,0,1,1-11.42-11.77A11.6,11.6,0,0,1,347.88,391.31Z"/><path class="cls-5" d="M410.12,465a7.92,7.92,0,1,1-7.92-8.17A8,8,0,0,1,410.12,465Z"/><path class="cls-6" d="M119.67,369.88a4.36,4.36,0,1,1-4.36-4.5A4.42,4.42,0,0,1,119.67,369.88Z"/><ellipse class="cls-5" cx="113.62" cy="271.08" rx="13.43" ry="13.84"/><ellipse class="cls-7" cx="1464.3" cy="138.67" rx="9.61" ry="9.9"/><ellipse class="cls-7" cx="1446.49" cy="334.86" rx="7.7" ry="7.94"/><ellipse class="cls-7" cx="1499.66" cy="390.44" rx="9.33" ry="9.62"/><path class="cls-7" d="M1460.23,396.66a8.54,8.54,0,1,1-8.54-8.8A8.68,8.68,0,0,1,1460.23,396.66Z"/><path class="cls-7" d="M1260.52,548.33a13.42,13.42,0,1,1-13.41-13.83A13.63,13.63,0,0,1,1260.52,548.33Z"/><path class="cls-7" d="M1121.83,485a11.54,11.54,0,1,1-11.53-11.89A11.72,11.72,0,0,1,1121.83,485Z"/><ellipse class="cls-7" cx="1106.76" cy="373.11" rx="11.91" ry="12.28"/><ellipse class="cls-7" cx="977.52" cy="245.73" rx="13.59" ry="14.02"/><path class="cls-7" d="M1035.58,161.18a4.67,4.67,0,1,1-4.67-4.81A4.74,4.74,0,0,1,1035.58,161.18Z"/><path class="cls-7" d="M819.64,492.49a4.21,4.21,0,1,1-4.2-4.33A4.27,4.27,0,0,1,819.64,492.49Z"/><path class="cls-7" d="M448.81,357.73a9.35,9.35,0,1,1-9.35-9.64A9.5,9.5,0,0,1,448.81,357.73Z"/><ellipse class="cls-7" cx="314.51" cy="573.39" rx="9.17" ry="9.46"/><ellipse class="cls-7" cx="555.03" cy="325.81" rx="7.46" ry="7.69"/><path class="cls-7" d="M414.85,247.55A11.82,11.82,0,1,1,403,235.36,12,12,0,0,1,414.85,247.55Z"/><path class="cls-7" d="M290.43,140.44a12.68,12.68,0,1,1-12.68-13.07A12.88,12.88,0,0,1,290.43,140.44Z"/><path class="cls-7" d="M527,145a8,8,0,1,1-8-8.2A8.08,8.08,0,0,1,527,145Z"/><path class="cls-4" d="M289,628.33A12.92,12.92,0,1,1,276.05,615,13.13,13.13,0,0,1,289,628.33Z"/></g></g></g></svg>