<svg xmlns="http://www.w3.org/2000/svg" viewBox="0 0 496 496"><defs><style>.cls-1{fill:#0adcc8;}.cls-2{fill:#535b82;}</style></defs><title>cloud</title><g id="Layer_2" data-name="Layer 2"><g id="Layer_5" data-name="Layer 5"><path class="cls-1" d="M472,384a24,24,0,0,0-22.53,16H360a8,8,0,0,1-8-8V370.28l30.18-30.19-9.84-19.69a142.51,142.51,0,0,0,14.81-35.68l20.85-7V256h32a56,56,0,0,0,6.86-111.54A130.13,130.13,0,0,0,448,128,128,128,0,0,0,218.49,50.06,103.94,103.94,0,0,0,56,136c0,2.67.15,5.35.35,8L56,144a56,56,0,0,0,0,112H88v21.77l20.85,7a142.51,142.51,0,0,0,14.81,35.68l-9.84,19.69L144,370.27V392a8,8,0,0,1-8,8H46.53a24,24,0,1,0,0,16H136a24,24,0,0,0,24-24V380.14l15.61-7.8A144.71,144.71,0,0,0,192,380.52V456a8,8,0,0,1-8,8H110.53a24,24,0,1,0,0,16H184a24,24,0,0,0,24-24V386.16c1.1.32,2.18.7,3.29,1L218.23,408H240v56h16V408h21.77l7-20.85c1.1-.29,2.18-.66,3.29-1V456a24,24,0,0,0,24,24h73.47a24,24,0,1,0,0-16H312a8,8,0,0,1-8-8V380.52a144.71,144.71,0,0,0,16.39-8.18l15.61,7.8V392a24,24,0,0,0,24,24h89.47A24,24,0,1,0,472,384ZM24,416a8,8,0,1,1,8-8A8,8,0,0,1,24,416Zm64,64a8,8,0,1,1,8-8A8,8,0,0,1,88,480Zm320-16a8,8,0,1,1-8,8A8,8,0,0,1,408,464ZM56,240a40,40,0,1,1,26.76-69.74l10.7-11.88a56,56,0,0,0-20.75-11.79A89.26,89.26,0,0,1,72,136a88.1,88.1,0,0,1,88-88,87,87,0,0,1,55.22,19.54L222,73l4.87-7.26A112,112,0,1,1,409.62,195.19l12.79,9.61a126.82,126.82,0,0,0,21.43-44.42A39.9,39.9,0,0,1,440,240H408V218.23l-20.85-6.95a142.51,142.51,0,0,0-14.81-35.68l9.84-19.69-42.08-42.1-19.7,9.85a142.91,142.91,0,0,0-35.68-14.82l-7-20.84H218.24l-7,20.85a142.51,142.51,0,0,0-35.68,14.81l-19.69-9.84-42.1,42.1,9.84,19.69a142.48,142.48,0,0,0-14.8,35.68L88,218.23V240ZM472,416a8,8,0,1,1,8-8A8,8,0,0,1,472,416Z"/><path class="cls-2" d="M248,136A112,112,0,1,0,360,248,112.12,112.12,0,0,0,248,136Zm0,208c-8.41,0-18.9-14.47-25.52-40h51c-6.62,25.53-17.11,40-25.52,40Zm-28.9-56a241.53,241.53,0,0,1-2.95-32h63.69a239.86,239.86,0,0,1-2.95,32Zm-66.69-32h47.75a259.89,259.89,0,0,0,2.9,32H160.85A95,95,0,0,1,152.41,256ZM248,152c8.41,0,18.9,14.47,25.52,40h-51c6.62-25.53,17.11-40,25.52-40Zm28.9,56a241.53,241.53,0,0,1,3,32H216.16a239.86,239.86,0,0,1,3-32Zm-76.75,32H152.4a95,95,0,0,1,8.44-32h42.22A260.06,260.06,0,0,0,200.15,240Zm95.7,16H343.6a95,95,0,0,1-8.44,32H292.94a259.88,259.88,0,0,0,2.91-32Zm0-16a258.13,258.13,0,0,0-2.91-32h42.22a95,95,0,0,1,8.44,32Zm30-48h-36c-3.24-13.79-7.73-26.15-13.44-35.72A96.3,96.3,0,0,1,325.82,192ZM219.66,156.28c-5.72,9.58-10.2,21.93-13.45,35.72h-36A96.3,96.3,0,0,1,219.66,156.28ZM170.18,304h36c3.24,13.79,7.73,26.15,13.44,35.72A96.3,96.3,0,0,1,170.18,304Zm106.16,35.72c5.72-9.58,10.2-21.93,13.45-35.72h36A96.3,96.3,0,0,1,276.34,339.72Z"/><path class="cls-2" d="M240,480h16v16H240Z"/><path class="cls-2" d="M400,128h16a96.1,96.1,0,0,0-96-96V48A80.09,80.09,0,0,1,400,128Z"/><path class="cls-2" d="M160,80V64a72.08,72.08,0,0,0-72,72h16A56.07,56.07,0,0,1,160,80Z"/></g></g></svg>