<svg xmlns="http://www.w3.org/2000/svg" viewBox="0 0 157.13 268.15"><defs><style>.cls-1{fill:#5793ce;}.cls-2{fill:#396caa;}.cls-3,.cls-7{fill:#d4ecff;}.cls-4{fill:#fff;}.cls-5{fill:#fafdff;}.cls-6{fill:#173d7a;}.cls-7{opacity:0.4;}</style></defs><title>Asset 1</title><g id="Layer_2" data-name="Layer 2"><g id="Ñëîé_1" data-name="Ñëîé 1"><path class="cls-1" d="M74,112.16a.83.83,0,0,1-.84-.84V76.82a.84.84,0,1,1,1.68,0v34.5A.84.84,0,0,1,74,112.16Z"/><rect class="cls-1" x="71" y="74.65" width="5.99" height="12.93"/><path class="cls-1" d="M76.12,88.81a4.66,4.66,0,0,1-4.24,0,1.29,1.29,0,0,1,0-2.45,4.72,4.72,0,0,1,4.24,0A1.29,1.29,0,0,1,76.12,88.81Z"/><rect class="cls-1" x="69.14" y="56.62" width="9.71" height="20.29"/><path class="cls-2" d="M71,76.78v4.38a7.78,7.78,0,0,0,6,0V76.78A7.78,7.78,0,0,0,71,76.78Z"/><path class="cls-1" d="M77.43,78.89a7.56,7.56,0,0,1-6.87,0c-1.89-1.09-1.89-2.87,0-4a7.56,7.56,0,0,1,6.87,0C79.33,76,79.33,77.8,77.43,78.89Z"/><path class="cls-1" d="M107.64,131.09a.84.84,0,0,1-.84-.84V95.75a.84.84,0,0,1,1.68,0v34.5A.83.83,0,0,1,107.64,131.09Z"/><rect class="cls-1" x="104.65" y="93.58" width="5.99" height="12.94"/><path class="cls-1" d="M109.76,107.74a4.66,4.66,0,0,1-4.24,0,1.29,1.29,0,0,1,0-2.45,4.72,4.72,0,0,1,4.24,0A1.29,1.29,0,0,1,109.76,107.74Z"/><rect class="cls-1" x="102.79" y="75.56" width="9.71" height="20.29"/><path class="cls-2" d="M104.65,95.71v4.38a7.78,7.78,0,0,0,6,0V95.71A7.78,7.78,0,0,0,104.65,95.71Z"/><path class="cls-1" d="M111.08,97.83a7.63,7.63,0,0,1-6.87,0c-1.9-1.1-1.9-2.87,0-4a7.63,7.63,0,0,1,6.87,0C113,95,113,96.73,111.08,97.83Z"/><polygon class="cls-1" points="140.35 109.22 153.37 101.55 140.97 86.07 137.71 91.39 140.35 109.22"/><path class="cls-1" d="M45.79,24.26l20.78-12s-.78,11.93-.78,12S53.85,28,53.85,28Z"/><path class="cls-1" d="M144,70.29a13.13,13.13,0,0,0-4.5-1.67c-2.09-11-9.76-22.71-18.89-28A18.47,18.47,0,0,0,112.84,38C111.59,24.67,102.31,9.5,91,3,85.15-.41,79.81-.81,75.87,1.27h0l-.19.11-.3.18L63.12,8.78,67.2,12c-3.66,1.6-6,5.7-6,11.76,0,11.18,7.85,24.77,17.53,30.36L144,100.68c7.27,4.2,13.16.8,13.16-7.59S151.24,74.49,144,70.29Z"/><path class="cls-1" d="M61.83,18.84,90,2.4C84.5-.45,79.57-.68,75.87,1.27h0l-.19.11-.3.18L63.12,8.78,67.2,12C64.64,13.12,62.75,15.46,61.83,18.84Z"/><path class="cls-1" d="M113.78,67.19l20.53-12c-3.52-6.08-8.37-11.4-13.73-14.5-.72-.41-1.42-.77-2.11-1.08L92.37,54.82Z"/><path class="cls-3" d="M68.91,10.13l9.14,5.28L94.8,5.54A32.32,32.32,0,0,0,91,3,23.59,23.59,0,0,0,85.19.53Z"/><path class="cls-3" d="M132.05,51.6l-16.39,9.65,5.7,6.36,14.87-8.78A47.66,47.66,0,0,0,132.05,51.6Z"/><path class="cls-3" d="M131.1,77.87a13.13,13.13,0,0,0-4.5-1.67c-2.09-11-9.75-22.71-18.89-28A18.42,18.42,0,0,0,100,45.6c-1.24-13.35-10.53-28.52-21.8-35-12.12-7-22-1.32-22,12.67,0,.48,0,1,0,1.44-8.86-4.11-15.79.52-15.79,11,0,11.18,7.85,24.77,17.53,30.36l73.1,42.2c7.27,4.2,13.16.8,13.16-7.59S138.37,82.07,131.1,77.87Z"/><path class="cls-4" d="M56.26,24.68c0-.48,0-1,0-1.44,0,0,0,0,0-.06-4.9-1.9-9.11-1.07-11.75,2C47.35,22.8,51.52,22.48,56.26,24.68Z"/><path class="cls-4" d="M132.17,76.83a12.92,12.92,0,0,0-4.5-1.67c-2.09-11-9.75-22.71-18.89-28A18.42,18.42,0,0,0,101,44.56C99.8,31.21,90.51,16,79.24,9.53c-7.55-4.36-14.21-3.8-18.16.62,4-3.43,10.18-3.57,17.09.42,11.27,6.51,20.56,21.68,21.8,35a18.42,18.42,0,0,1,7.74,2.62c9.14,5.27,16.8,17,18.89,28a13.13,13.13,0,0,1,4.5,1.67c7.27,4.2,13.16,14.4,13.16,22.8a10.82,10.82,0,0,1-2.1,7c2-1.52,3.17-4.28,3.17-8C145.33,91.23,139.44,81,132.17,76.83Z"/><path class="cls-2" d="M54.71,28l5.5,2.55-.28-6c0-.42,0-.85,0-1.27,0-5.4,1.63-9.31,4.59-11s7.17-1.17,11.85,1.53c10.06,5.81,18.83,20,20,32.19L96.6,49l3.09.23a15,15,0,0,1,6.18,2.14c8,4.61,15.19,15.33,17.12,25.49l.49,2.54,2.56.4a9.47,9.47,0,0,1,3.22,1.22c6.14,3.55,11.33,12.53,11.33,19.61,0,2.66-.74,4.6-2,5.34s-3.33.41-5.63-.92L59.83,62.87C51.33,58,44.14,45.52,44.14,35.7c0-3.85,1.14-6.79,3.12-8.06a5.35,5.35,0,0,1,2.92-.77A11,11,0,0,1,54.71,28Z"/><polygon class="cls-1" points="91.2 73.83 93.13 72.86 91.23 71.42 91.2 73.83"/><polygon class="cls-1" points="85.41 47.78 87.28 46.83 87.31 47.81 85.41 47.78"/><polygon class="cls-1" points="96.7 67.74 98.66 66.76 94.89 63.18 96.7 67.74"/><path class="cls-1" d="M92.56,72.8l-9.13-5.38a2,2,0,0,1-.83-1.53l0-10.57,10.81,6.36,0,10.57C93.4,72.83,93,73.07,92.56,72.8Z"/><path class="cls-1" d="M87.26,46.84,77.4,53.19c-.42.27-.08,1.27.55,1.65L88,60.77,98.1,66.7c.63.37,1-.23.56-1L88.87,47.79C88.44,47,87.69,46.57,87.26,46.84Z"/><path class="cls-3" d="M90.61,73.79l-9.13-5.38a1.93,1.93,0,0,1-.84-1.54l0-10.57,10.81,6.37,0,10.57C91.45,73.81,91.07,74.06,90.61,73.79Z"/><path class="cls-3" d="M85.3,47.83l-9.86,6.35c-.42.27-.08,1.27.56,1.64l10.07,5.93,10.07,5.94c.63.37,1-.23.56-1L86.91,48.78C86.49,48,85.73,47.56,85.3,47.83Z"/><path class="cls-3" d="M73.08,85.34c0,.6-.42.84-.94.54a2.07,2.07,0,0,1-.93-1.61c0-.6.42-.84.93-.54A2.06,2.06,0,0,1,73.08,85.34Z"/><path class="cls-3" d="M106.8,104.55c0,.6-.41.84-.93.54a2,2,0,0,1-.93-1.62c0-.59.41-.83.93-.53A2,2,0,0,1,106.8,104.55Z"/><path class="cls-3" d="M46.54,235,3.82,210.63c-1.56-.9-1.37-2.47.44-3.52l24.58-14.19a6.77,6.77,0,0,1,6.09-.25L77.66,217c1.56.9,1.36,2.48-.44,3.52L52.64,234.74A6.8,6.8,0,0,1,46.54,235Z"/><path class="cls-2" d="M81.46,208.83h0V109.09L41.81,98.71l-7.3-4.21a7.25,7.25,0,0,0-6.54.27L21.16,98.7H0L6.27,195a1.91,1.91,0,0,0,1.12,1.76L47,226.58a7.25,7.25,0,0,0,6.54-.27l26.37-15.22C81,210.44,81.53,209.61,81.46,208.83Z"/><path class="cls-3" d="M31.48,93.85a7.57,7.57,0,0,0-3.51.92L21.16,98.7H0v100a1.9,1.9,0,0,0,1.12,1.75L47,226.58a5.86,5.86,0,0,0,3,.65l.47-100.63Z"/><path class="cls-1" d="M47.38,226.79a7.48,7.48,0,0,0,5.23-.06V125.41H47.38Z"/><path class="cls-3" d="M47,126.61,1.13,100.48c-1.67-1-1.46-2.66.47-3.78L28,81.48a7.25,7.25,0,0,1,6.54-.27l45.83,26.13c1.68,1,1.47,2.66-.47,3.78L53.5,126.34A7.25,7.25,0,0,1,47,126.61Z"/><path class="cls-5" d="M79.87,109.26,53.5,124.49a7.32,7.32,0,0,1-6.54.27L1.13,98.62a2.43,2.43,0,0,1-.83-.74,1.76,1.76,0,0,0,.83,2.6L47,126.61a7.25,7.25,0,0,0,6.54-.27l26.37-15.22c1.51-.87,2-2.09,1.31-3A3.64,3.64,0,0,1,79.87,109.26Z"/><path class="cls-6" d="M48.26,116,17.75,98.33c-.79-.45-.69-1.24.22-1.76l12.34-7.13a3.42,3.42,0,0,1,3.06-.13L63.88,107c.78.45.69,1.25-.22,1.77l-12.34,7.12A3.39,3.39,0,0,1,48.26,116Z"/><path class="cls-3" d="M31.79,99.13l-1.77-1c-.11-.07-.1-.18,0-.25l1.71-1a.45.45,0,0,1,.42,0l1.77,1c.11.06.09.17,0,.24l-1.71,1A.48.48,0,0,1,31.79,99.13Z"/><path class="cls-3" d="M37.69,102.52l-1.76-1c-.11-.06-.1-.17,0-.24l1.7-1a.5.5,0,0,1,.43,0l1.76,1c.11.06.1.17,0,.24l-1.7,1A.47.47,0,0,1,37.69,102.52Z"/><path class="cls-3" d="M43.6,105.92l-1.77-1c-.11-.06-.09-.17,0-.25l1.71-1a.48.48,0,0,1,.42,0l1.77,1c.11.06.1.17,0,.25l-1.71,1A.48.48,0,0,1,43.6,105.92Z"/><path class="cls-3" d="M49.51,109.32l-1.77-1c-.11-.07-.1-.18,0-.25l1.71-1a.45.45,0,0,1,.42,0l1.77,1c.11.06.09.17,0,.24l-1.71,1A.48.48,0,0,1,49.51,109.32Z"/><path class="cls-1" d="M17.75,98.33l0,0,.19-.12L30.31,91.1A3.39,3.39,0,0,1,33.37,91l30.47,17.66c.73-.52.76-1.22,0-1.64L33.37,89.31a3.42,3.42,0,0,0-3.06.13L18,96.57C17.06,97.09,17,97.88,17.75,98.33Z"/><path class="cls-6" d="M58.65,146.37,76,136.44a4.23,4.23,0,0,0,1.77-3.38v-6.2c0-1.3-.79-1.9-1.77-1.34l-17.35,9.93a4.24,4.24,0,0,0-1.77,3.38V145C56.88,146.34,57.67,146.94,58.65,146.37Z"/><path class="cls-4" d="M76.86,125.33a1.75,1.75,0,0,1,.44,1.29v6.21a4.24,4.24,0,0,1-1.77,3.38l-17.34,9.93a1.32,1.32,0,0,1-.86.19,1.05,1.05,0,0,0,1.32,0L76,136.44a4.23,4.23,0,0,0,1.77-3.38v-6.2C77.77,126,77.4,125.43,76.86,125.33Z"/><path class="cls-2" d="M63.87,139.63l1.59-.92a.92.92,0,0,0,.39-.73v-1.7c0-.29-.18-.42-.39-.29l-1.59.91a1,1,0,0,0-.39.74v1.7C63.48,139.62,63.66,139.76,63.87,139.63Z"/><path class="cls-4" d="M69.19,136.56l1.59-.92a.93.93,0,0,0,.39-.74v-1.69c0-.29-.18-.42-.39-.3l-1.59.92a1,1,0,0,0-.38.74v1.7C68.81,136.55,69,136.68,69.19,136.56Z"/><path class="cls-6" d="M58.65,191.2,76,181.27a4.21,4.21,0,0,0,1.77-3.38v-6.2c0-1.3-.79-1.9-1.77-1.34l-17.35,9.94a4.21,4.21,0,0,0-1.77,3.37v6.21C56.88,191.17,57.67,191.77,58.65,191.2Z"/><path class="cls-4" d="M76.86,170.17a1.72,1.72,0,0,1,.44,1.29v6.2A4.24,4.24,0,0,1,75.53,181L58.19,191a1.32,1.32,0,0,1-.86.19,1.05,1.05,0,0,0,1.32,0L76,181.27a4.21,4.21,0,0,0,1.77-3.38v-6.2C77.77,170.81,77.4,170.26,76.86,170.17Z"/><path class="cls-2" d="M63.87,184.46l1.59-.91a1,1,0,0,0,.39-.74v-1.7c0-.28-.18-.41-.39-.29l-1.59.92a.92.92,0,0,0-.39.73v1.7C63.48,184.46,63.66,184.59,63.87,184.46Z"/><path class="cls-4" d="M69.19,181.39l1.59-.92a.92.92,0,0,0,.39-.73V178c0-.29-.18-.42-.39-.29l-1.59.91a1,1,0,0,0-.38.74v1.7C68.81,181.38,69,181.52,69.19,181.39Z"/><path class="cls-6" d="M58.65,213.62,76,203.69a4.24,4.24,0,0,0,1.77-3.38v-6.2c0-1.31-.79-1.9-1.77-1.34L58.65,202.7a4.24,4.24,0,0,0-1.77,3.38v6.2C56.88,213.59,57.67,214.18,58.65,213.62Z"/><path class="cls-4" d="M76.86,192.58a1.75,1.75,0,0,1,.44,1.29v6.21a4.21,4.21,0,0,1-1.77,3.37l-17.34,9.94a1.25,1.25,0,0,1-.86.18,1,1,0,0,0,1.32.05L76,203.69a4.24,4.24,0,0,0,1.77-3.38v-6.2C77.77,193.22,77.4,192.67,76.86,192.58Z"/><path class="cls-2" d="M63.87,206.88l1.59-.92a.92.92,0,0,0,.39-.73v-1.7c0-.29-.18-.42-.39-.3l-1.59.92a1,1,0,0,0-.39.74v1.7C63.48,206.87,63.66,207,63.87,206.88Z"/><path class="cls-4" d="M69.19,203.81l1.59-.92a.93.93,0,0,0,.39-.74v-1.7c0-.28-.18-.41-.39-.29l-1.59.92a.92.92,0,0,0-.38.74v1.7C68.81,203.8,69,203.93,69.19,203.81Z"/><path class="cls-6" d="M58.65,168.79,76,158.85a4.21,4.21,0,0,0,1.77-3.37v-6.21c0-1.3-.79-1.9-1.77-1.33l-17.35,9.93a4.23,4.23,0,0,0-1.77,3.38v6.2C56.88,168.75,57.67,169.35,58.65,168.79Z"/><path class="cls-4" d="M76.86,147.75A1.75,1.75,0,0,1,77.3,149v6.2a4.21,4.21,0,0,1-1.77,3.38l-17.34,9.94a1.25,1.25,0,0,1-.86.18,1,1,0,0,0,1.32,0L76,158.85a4.21,4.21,0,0,0,1.77-3.37v-6.21C77.77,148.39,77.4,147.84,76.86,147.75Z"/><path class="cls-2" d="M63.87,162.05l1.59-.92a.93.93,0,0,0,.39-.74v-1.7c0-.28-.18-.41-.39-.29l-1.59.92a.93.93,0,0,0-.39.74v1.7C63.48,162,63.66,162.17,63.87,162.05Z"/><path class="cls-4" d="M69.19,159l1.59-.92a1,1,0,0,0,.39-.74v-1.7c0-.28-.18-.41-.39-.29l-1.59.92a.92.92,0,0,0-.38.73v1.7C68.81,159,69,159.1,69.19,159Z"/><path class="cls-1" d="M43.62,140l-40-23.11A3.87,3.87,0,0,1,2,113.81v-7.63C2,105,2.7,104.44,3.6,105l40,23.11a3.89,3.89,0,0,1,1.63,3.1v7.63C45.25,140,44.52,140.54,43.62,140Z"/><path class="cls-7" d="M42.48,137.34,4.75,115.56A2,2,0,0,1,3.92,114v-5.74c0-.6.37-.88.83-.62l37.73,21.78A2,2,0,0,1,43.3,131v5.74C43.3,137.33,42.93,137.61,42.48,137.34Z"/><path class="cls-3" d="M12.61,117.2,7,114a1.91,1.91,0,0,1-.8-1.53h0c0-.58.36-.86.8-.6l5.63,3.25a1.93,1.93,0,0,1,.8,1.53h0C13.41,117.19,13.05,117.46,12.61,117.2Z"/><path class="cls-6" d="M17.41,118.91c0,.58-.41.82-.92.53a2.06,2.06,0,0,1-.93-1.6c0-.59.42-.83.93-.53A2,2,0,0,1,17.41,118.91Z"/><path class="cls-6" d="M20.66,120.79c0,.58-.41.82-.92.53a2,2,0,0,1-.92-1.6c0-.59.41-.83.92-.53A2,2,0,0,1,20.66,120.79Z"/><path class="cls-3" d="M23.92,122.67c0,.58-.41.82-.92.53a2.06,2.06,0,0,1-.93-1.6c0-.59.42-.83.93-.53A2,2,0,0,1,23.92,122.67Z"/><path class="cls-6" d="M27.17,124.54c0,.59-.41.83-.92.54a2,2,0,0,1-.92-1.6c0-.59.41-.83.92-.53A2,2,0,0,1,27.17,124.54Z"/><path class="cls-6" d="M40.89,134.15l-1.9-1.1a1.23,1.23,0,0,1-.51-1v-2c0-.38.23-.55.51-.39l1.9,1.1a1.23,1.23,0,0,1,.51,1v2C41.4,134.14,41.17,134.31,40.89,134.15Z"/><path class="cls-1" d="M43.62,153.48l-40-23.11A3.87,3.87,0,0,1,2,127.27v-7.63c0-1.2.72-1.74,1.62-1.23l40,23.11a3.89,3.89,0,0,1,1.63,3.1v7.63C45.25,153.45,44.52,154,43.62,153.48Z"/><path class="cls-7" d="M42.48,150.8,4.75,129a2,2,0,0,1-.83-1.57v-5.74c0-.6.37-.88.83-.62l37.73,21.78a2,2,0,0,1,.82,1.57v5.74C43.3,150.79,42.93,151.07,42.48,150.8Z"/><path class="cls-3" d="M12.61,130.66,7,127.41a1.93,1.93,0,0,1-.8-1.53h0c0-.59.36-.86.8-.6l5.63,3.25a1.91,1.91,0,0,1,.8,1.53h0C13.41,130.64,13.05,130.92,12.61,130.66Z"/><path class="cls-4" d="M17.41,132.36c0,.59-.41.83-.92.54a2.06,2.06,0,0,1-.93-1.6c0-.59.42-.83.93-.53A2,2,0,0,1,17.41,132.36Z"/><path class="cls-6" d="M20.66,134.24c0,.59-.41.83-.92.54a2,2,0,0,1-.92-1.6c0-.59.41-.83.92-.53A2,2,0,0,1,20.66,134.24Z"/><path class="cls-3" d="M23.92,136.12c0,.59-.41.83-.92.54a2.06,2.06,0,0,1-.93-1.6c0-.59.42-.83.93-.53A2,2,0,0,1,23.92,136.12Z"/><path class="cls-6" d="M27.17,138c0,.59-.41.83-.92.54a2,2,0,0,1-.92-1.6c0-.59.41-.83.92-.53A2,2,0,0,1,27.17,138Z"/><path class="cls-6" d="M40.89,147.61l-1.9-1.1a1.23,1.23,0,0,1-.51-1v-2c0-.38.23-.55.51-.39l1.9,1.09a1.26,1.26,0,0,1,.51,1v2C41.4,147.6,41.17,147.77,40.89,147.61Z"/><path class="cls-1" d="M43.62,166.94l-40-23.11A3.88,3.88,0,0,1,2,140.73V133.1c0-1.2.72-1.75,1.62-1.23l40,23.11a3.89,3.89,0,0,1,1.63,3.1v7.63C45.25,166.91,44.52,167.46,43.62,166.94Z"/><path class="cls-7" d="M42.48,164.26,4.75,142.48a2,2,0,0,1-.83-1.57v-5.74c0-.61.37-.88.83-.62l37.73,21.78a2,2,0,0,1,.82,1.57v5.74C43.3,164.25,42.93,164.52,42.48,164.26Z"/><path class="cls-3" d="M12.61,144.12,7,140.87a1.93,1.93,0,0,1-.8-1.53h0c0-.59.36-.86.8-.6L12.61,142a1.91,1.91,0,0,1,.8,1.52h0C13.41,144.1,13.05,144.37,12.61,144.12Z"/><path class="cls-4" d="M17.41,145.82c0,.59-.41.83-.92.54a2.06,2.06,0,0,1-.93-1.6c0-.59.42-.83.93-.53A2,2,0,0,1,17.41,145.82Z"/><path class="cls-6" d="M20.66,147.7c0,.59-.41.83-.92.54a2,2,0,0,1-.92-1.6c0-.59.41-.83.92-.54A2,2,0,0,1,20.66,147.7Z"/><path class="cls-3" d="M23.92,149.58c0,.59-.41.83-.92.54a2.06,2.06,0,0,1-.93-1.6c0-.59.42-.83.93-.54A2,2,0,0,1,23.92,149.58Z"/><path class="cls-6" d="M27.17,151.46c0,.59-.41.83-.92.53a2,2,0,0,1-.92-1.59c0-.59.41-.83.92-.54A2,2,0,0,1,27.17,151.46Z"/><path class="cls-6" d="M40.89,161.07,39,160a1.23,1.23,0,0,1-.51-1v-2c0-.38.23-.56.51-.39l1.9,1.09a1.26,1.26,0,0,1,.51,1v2C41.4,161.06,41.17,161.23,40.89,161.07Z"/><path class="cls-1" d="M43.62,180.4l-40-23.11A3.88,3.88,0,0,1,2,154.19v-7.63c0-1.2.72-1.75,1.62-1.23l40,23.11a3.88,3.88,0,0,1,1.63,3.1v7.63C45.25,180.37,44.52,180.91,43.62,180.4Z"/><path class="cls-7" d="M42.48,177.72,4.75,155.94a2,2,0,0,1-.83-1.57v-5.74c0-.61.37-.89.83-.62l37.73,21.78a2,2,0,0,1,.82,1.57v5.74C43.3,177.7,42.93,178,42.48,177.72Z"/><path class="cls-3" d="M12.61,157.58,7,154.33a1.93,1.93,0,0,1-.8-1.53h0c0-.59.36-.86.8-.6l5.63,3.25a1.9,1.9,0,0,1,.8,1.52h0C13.41,157.56,13.05,157.83,12.61,157.58Z"/><path class="cls-6" d="M17.41,159.28c0,.59-.41.83-.92.53a2,2,0,0,1-.93-1.59c0-.59.42-.83.93-.54A2,2,0,0,1,17.41,159.28Z"/><path class="cls-6" d="M20.66,161.16c0,.59-.41.83-.92.53a2,2,0,0,1-.92-1.59c0-.59.41-.83.92-.54A2,2,0,0,1,20.66,161.16Z"/><path class="cls-3" d="M23.92,163c0,.59-.41.83-.92.53a2,2,0,0,1-.93-1.59c0-.59.42-.83.93-.54A2,2,0,0,1,23.92,163Z"/><path class="cls-6" d="M27.17,164.92c0,.59-.41.83-.92.53a2,2,0,0,1-.92-1.59c0-.59.41-.83.92-.54A2,2,0,0,1,27.17,164.92Z"/><path class="cls-3" d="M40.89,174.53l-1.9-1.1a1.23,1.23,0,0,1-.51-1v-2c0-.37.23-.55.51-.38l1.9,1.09a1.24,1.24,0,0,1,.51,1v2C41.4,174.52,41.17,174.69,40.89,174.53Z"/><path class="cls-1" d="M43.62,193.86l-40-23.11A3.88,3.88,0,0,1,2,167.65V160c0-1.2.72-1.75,1.62-1.23l40,23.11a3.88,3.88,0,0,1,1.63,3.1v7.63C45.25,193.82,44.52,194.37,43.62,193.86Z"/><path class="cls-7" d="M42.48,191.18,4.75,169.4a2,2,0,0,1-.83-1.57v-5.74c0-.61.37-.89.83-.62l37.73,21.78a2,2,0,0,1,.82,1.57v5.74C43.3,191.16,42.93,191.44,42.48,191.18Z"/><path class="cls-3" d="M12.61,171,7,167.79a1.93,1.93,0,0,1-.8-1.53h0c0-.59.36-.86.8-.61l5.63,3.26a1.9,1.9,0,0,1,.8,1.52h0C13.41,171,13.05,171.29,12.61,171Z"/><path class="cls-6" d="M17.41,172.74c0,.59-.41.83-.92.53a2,2,0,0,1-.93-1.59c0-.59.42-.83.93-.54A2,2,0,0,1,17.41,172.74Z"/><path class="cls-4" d="M20.66,174.62c0,.59-.41.83-.92.53a2,2,0,0,1-.92-1.6c0-.58.41-.82.92-.53A2,2,0,0,1,20.66,174.62Z"/><path class="cls-3" d="M23.92,176.5c0,.59-.41.83-.92.53a2,2,0,0,1-.93-1.6c0-.58.42-.82.93-.53A2,2,0,0,1,23.92,176.5Z"/><path class="cls-4" d="M27.17,178.38c0,.59-.41.83-.92.53a2,2,0,0,1-.92-1.6c0-.58.41-.82.92-.53A2,2,0,0,1,27.17,178.38Z"/><path class="cls-3" d="M40.89,188,39,186.89a1.23,1.23,0,0,1-.51-1v-2c0-.37.23-.55.51-.38l1.9,1.09a1.23,1.23,0,0,1,.51,1v2C41.4,188,41.17,188.15,40.89,188Z"/><path class="cls-1" d="M43.62,207.31l-40-23.1A3.88,3.88,0,0,1,2,181.11v-7.64c0-1.19.72-1.74,1.62-1.22l40,23.11a3.86,3.86,0,0,1,1.63,3.1v7.63C45.25,207.28,44.52,207.83,43.62,207.31Z"/><path class="cls-7" d="M42.48,204.64,4.75,182.86a2,2,0,0,1-.83-1.58v-5.73c0-.61.37-.89.83-.63l37.73,21.79a2,2,0,0,1,.82,1.57V204C43.3,204.62,42.93,204.9,42.48,204.64Z"/><path class="cls-3" d="M12.61,184.49,7,181.24a1.9,1.9,0,0,1-.8-1.52h0c0-.59.36-.86.8-.61l5.63,3.25a1.93,1.93,0,0,1,.8,1.53h0C13.41,184.48,13.05,184.75,12.61,184.49Z"/><path class="cls-6" d="M17.41,186.2c0,.59-.41.83-.92.53a2,2,0,0,1-.93-1.6c0-.58.42-.82.93-.53A2,2,0,0,1,17.41,186.2Z"/><path class="cls-6" d="M20.66,188.08c0,.59-.41.83-.92.53a2,2,0,0,1-.92-1.6c0-.58.41-.82.92-.53A2,2,0,0,1,20.66,188.08Z"/><path class="cls-3" d="M23.92,190c0,.59-.41.83-.92.53a2,2,0,0,1-.93-1.6c0-.59.42-.82.93-.53A2,2,0,0,1,23.92,190Z"/><path class="cls-6" d="M27.17,191.84c0,.59-.41.83-.92.53a2,2,0,0,1-.92-1.6c0-.59.41-.82.92-.53A2,2,0,0,1,27.17,191.84Z"/><path class="cls-6" d="M40.89,201.44,39,200.35a1.24,1.24,0,0,1-.51-1v-2c0-.38.23-.55.51-.39l1.9,1.1a1.23,1.23,0,0,1,.51,1v2C41.4,201.43,41.17,201.61,40.89,201.44Z"/><path class="cls-1" d="M43.62,220.77l-40-23.11A3.85,3.85,0,0,1,2,194.56v-7.63c0-1.19.72-1.74,1.62-1.22l40,23.11a3.86,3.86,0,0,1,1.63,3.09v7.64C45.25,220.74,44.52,221.29,43.62,220.77Z"/><path class="cls-7" d="M42.48,218.1,4.75,196.32a2,2,0,0,1-.83-1.58V189c0-.6.37-.88.83-.62l37.73,21.78a2,2,0,0,1,.82,1.58v5.73C43.3,218.08,42.93,218.36,42.48,218.1Z"/><path class="cls-3" d="M12.61,198,7,194.7a1.91,1.91,0,0,1-.8-1.52h0c0-.59.36-.86.8-.61l5.63,3.25a1.93,1.93,0,0,1,.8,1.53h0C13.41,197.94,13.05,198.21,12.61,198Z"/><path class="cls-4" d="M38.48,212.08c0,1.11-.78,1.56-1.74,1a3.82,3.82,0,0,1-1.75-3c0-1.12.78-1.57,1.75-1A3.85,3.85,0,0,1,38.48,212.08Z"/><path class="cls-6" d="M17.41,199.83c0,.59-.41.82-.92.53a2,2,0,0,1-.93-1.6c0-.59.42-.83.93-.53A2,2,0,0,1,17.41,199.83Z"/><path class="cls-3" d="M20.66,201.71c0,.58-.41.82-.92.53a2,2,0,0,1-.92-1.6c0-.59.41-.83.92-.53A2,2,0,0,1,20.66,201.71Z"/><path class="cls-6" d="M23.92,203.59c0,.58-.41.82-.92.53a2.06,2.06,0,0,1-.93-1.6c0-.59.42-.83.93-.53A2,2,0,0,1,23.92,203.59Z"/><path class="cls-3" d="M103.32,267.54,60.6,243.18c-1.56-.9-1.37-2.48.44-3.52l24.58-14.19a6.75,6.75,0,0,1,6.09-.26l42.73,24.36c1.56.91,1.36,2.48-.44,3.52l-24.58,14.2A6.8,6.8,0,0,1,103.32,267.54Z"/><path class="cls-2" d="M138.25,241.37h0V141.64L98.59,131.26,91.29,127a7.25,7.25,0,0,0-6.54.27l-6.81,3.94-21.15,0,6.26,96.29a1.9,1.9,0,0,0,1.12,1.75l39.57,29.86a7.32,7.32,0,0,0,6.54-.27l26.37-15.23A2.59,2.59,0,0,0,138.25,241.37Z"/><path class="cls-3" d="M88.26,126.39a7.57,7.57,0,0,0-3.51.92l-6.81,3.94-21.15,0v100A1.89,1.89,0,0,0,57.91,233l45.83,26.14a6,6,0,0,0,3,.64l.47-100.63Z"/><path class="cls-1" d="M104.16,259.33a7.42,7.42,0,0,0,5.23-.06V158h-5.23Z"/><path class="cls-3" d="M103.74,159.16,57.91,133c-1.67-1-1.46-2.66.47-3.77L84.75,114a7.25,7.25,0,0,1,6.54-.27l45.83,26.13c1.68,1,1.47,2.66-.47,3.78l-26.37,15.22A7.29,7.29,0,0,1,103.74,159.16Z"/><path class="cls-5" d="M136.65,141.8,110.28,157a7.25,7.25,0,0,1-6.54.27L57.91,131.17a2.53,2.53,0,0,1-.83-.74,1.75,1.75,0,0,0,.83,2.59l45.83,26.14a7.29,7.29,0,0,0,6.54-.28l26.37-15.22c1.51-.87,2-2.08,1.31-3A3.63,3.63,0,0,1,136.65,141.8Z"/><path class="cls-6" d="M105,148.56,74.53,130.88c-.79-.46-.69-1.25.22-1.77L87.09,122a3.39,3.39,0,0,1,3.06-.12l30.51,17.69c.78.45.69,1.24-.22,1.76l-12.34,7.13A3.39,3.39,0,0,1,105,148.56Z"/><path class="cls-3" d="M88.57,131.67l-1.77-1c-.11-.06-.1-.17,0-.25l1.71-1a.48.48,0,0,1,.42,0l1.77,1c.11.07.09.17,0,.25l-1.71,1A.45.45,0,0,1,88.57,131.67Z"/><path class="cls-3" d="M94.47,135.07l-1.76-1c-.11-.07-.1-.18,0-.25l1.7-1a.47.47,0,0,1,.43,0l1.76,1c.11.06.1.17,0,.24l-1.7,1A.5.5,0,0,1,94.47,135.07Z"/><path class="cls-3" d="M100.38,138.46l-1.77-1c-.11-.06-.09-.17,0-.24l1.71-1a.48.48,0,0,1,.42,0l1.77,1c.11.06.1.17,0,.24l-1.71,1A.45.45,0,0,1,100.38,138.46Z"/><path class="cls-3" d="M106.29,141.86l-1.77-1c-.11-.06-.1-.17,0-.25l1.71-1a.48.48,0,0,1,.42,0l1.77,1c.11.06.09.17,0,.25l-1.71,1A.48.48,0,0,1,106.29,141.86Z"/><path class="cls-1" d="M74.53,130.88l0,0,.19-.13,12.34-7.12a3.39,3.39,0,0,1,3.06-.13l30.47,17.67c.73-.52.76-1.23,0-1.64L90.15,121.86a3.39,3.39,0,0,0-3.06.12l-12.34,7.13C73.84,129.63,73.74,130.42,74.53,130.88Z"/><path class="cls-6" d="M115.43,178.92,132.78,169a4.21,4.21,0,0,0,1.77-3.38v-6.2c0-1.3-.79-1.9-1.77-1.34L115.43,168a4.24,4.24,0,0,0-1.77,3.37v6.21C113.66,178.88,114.46,179.48,115.43,178.92Z"/><path class="cls-4" d="M133.64,157.88a1.72,1.72,0,0,1,.44,1.29v6.2a4.25,4.25,0,0,1-1.76,3.38L115,178.68a1.32,1.32,0,0,1-.86.19,1,1,0,0,0,1.32,0L132.78,169a4.21,4.21,0,0,0,1.77-3.38v-6.2C134.55,158.52,134.18,158,133.64,157.88Z"/><path class="cls-2" d="M120.65,172.18l1.59-.92a1,1,0,0,0,.39-.74v-1.7c0-.28-.18-.41-.39-.29l-1.59.92a.92.92,0,0,0-.39.73v1.7C120.26,172.17,120.44,172.3,120.65,172.18Z"/><path class="cls-4" d="M126,169.1l1.59-.92a.9.9,0,0,0,.39-.73v-1.7c0-.29-.17-.42-.39-.29l-1.59.92a.92.92,0,0,0-.38.73v1.7C125.59,169.1,125.76,169.23,126,169.1Z"/><path class="cls-6" d="M115.43,223.75l17.35-9.94a4.21,4.21,0,0,0,1.77-3.37v-6.21c0-1.3-.79-1.9-1.77-1.33l-17.35,9.93a4.25,4.25,0,0,0-1.77,3.38v6.2C113.66,223.71,114.46,224.31,115.43,223.75Z"/><path class="cls-4" d="M133.64,202.71a1.75,1.75,0,0,1,.44,1.29v6.2a4.23,4.23,0,0,1-1.76,3.38L115,223.52a1.25,1.25,0,0,1-.86.18,1,1,0,0,0,1.32.05l17.35-9.94a4.21,4.21,0,0,0,1.77-3.37v-6.21C134.55,203.35,134.18,202.8,133.64,202.71Z"/><path class="cls-2" d="M120.65,217l1.59-.92a.93.93,0,0,0,.39-.74v-1.7c0-.28-.18-.41-.39-.29l-1.59.92a.93.93,0,0,0-.39.74v1.7C120.26,217,120.44,217.13,120.65,217Z"/><path class="cls-4" d="M126,213.94l1.59-.92a.93.93,0,0,0,.39-.74v-1.7c0-.28-.17-.41-.39-.29l-1.59.92a.92.92,0,0,0-.38.73v1.7C125.59,213.93,125.76,214.06,126,213.94Z"/><path class="cls-6" d="M115.43,246.16l17.35-9.93a4.21,4.21,0,0,0,1.77-3.38v-6.2c0-1.3-.79-1.9-1.77-1.34l-17.35,9.94a4.24,4.24,0,0,0-1.77,3.37v6.21C113.66,246.13,114.46,246.73,115.43,246.16Z"/><path class="cls-4" d="M133.64,225.13a1.72,1.72,0,0,1,.44,1.29v6.2a4.26,4.26,0,0,1-1.76,3.38L115,245.93a1.32,1.32,0,0,1-.86.19,1.05,1.05,0,0,0,1.32,0l17.35-9.93a4.21,4.21,0,0,0,1.77-3.38v-6.2C134.55,225.77,134.18,225.22,133.64,225.13Z"/><path class="cls-2" d="M120.65,239.42l1.59-.91a1,1,0,0,0,.39-.74v-1.7c0-.28-.18-.41-.39-.29l-1.59.92a.92.92,0,0,0-.39.73v1.7C120.26,239.42,120.44,239.55,120.65,239.42Z"/><path class="cls-4" d="M126,236.35l1.59-.92a.9.9,0,0,0,.39-.73V233c0-.29-.17-.42-.39-.29l-1.59.91a1,1,0,0,0-.38.74v1.7C125.59,236.34,125.76,236.47,126,236.35Z"/><path class="cls-6" d="M115.43,201.33l17.35-9.93a4.24,4.24,0,0,0,1.77-3.38v-6.2c0-1.3-.79-1.9-1.77-1.34l-17.35,9.93a4.27,4.27,0,0,0-1.77,3.38V200C113.66,201.3,114.46,201.9,115.43,201.33Z"/><path class="cls-4" d="M133.64,180.29a1.75,1.75,0,0,1,.44,1.29v6.21a4.26,4.26,0,0,1-1.76,3.38L115,201.1a1.32,1.32,0,0,1-.86.19,1.05,1.05,0,0,0,1.32,0l17.35-9.93a4.24,4.24,0,0,0,1.77-3.38v-6.2C134.55,180.93,134.18,180.39,133.64,180.29Z"/><path class="cls-2" d="M120.65,194.59l1.59-.92a.92.92,0,0,0,.39-.73v-1.7c0-.29-.18-.42-.39-.29l-1.59.91a1,1,0,0,0-.39.74v1.7C120.26,194.58,120.44,194.71,120.65,194.59Z"/><path class="cls-4" d="M126,191.52l1.59-.92a.9.9,0,0,0,.39-.74v-1.7c0-.28-.17-.41-.39-.29l-1.59.92a.93.93,0,0,0-.38.74v1.7C125.59,191.51,125.76,191.64,126,191.52Z"/><path class="cls-1" d="M100.4,172.56l-40-23.1a3.88,3.88,0,0,1-1.62-3.1v-7.64c0-1.19.72-1.74,1.62-1.22l40,23.11a3.86,3.86,0,0,1,1.63,3.1v7.63C102,172.53,101.3,173.08,100.4,172.56Z"/><path class="cls-7" d="M99.26,169.89,61.53,148.11a2,2,0,0,1-.82-1.58V140.8c0-.61.36-.89.82-.63L99.26,162a2,2,0,0,1,.82,1.57v5.74C100.08,169.87,99.71,170.15,99.26,169.89Z"/><path class="cls-3" d="M69.39,149.75l-5.63-3.26A1.9,1.9,0,0,1,63,145h0c0-.59.36-.86.8-.61l5.63,3.25a1.93,1.93,0,0,1,.8,1.53h0C70.19,149.73,69.83,150,69.39,149.75Z"/><path class="cls-6" d="M74.19,151.45c0,.59-.41.83-.92.53a2,2,0,0,1-.93-1.6c0-.58.42-.82.93-.53A2,2,0,0,1,74.19,151.45Z"/><path class="cls-6" d="M77.44,153.33c0,.59-.41.83-.92.53a2,2,0,0,1-.92-1.6c0-.58.41-.82.92-.53A2,2,0,0,1,77.44,153.33Z"/><path class="cls-3" d="M80.7,155.21c0,.59-.41.83-.92.53a2,2,0,0,1-.93-1.6c0-.59.42-.82.93-.53A2,2,0,0,1,80.7,155.21Z"/><path class="cls-6" d="M84,157.09c0,.59-.42.83-.93.53a2,2,0,0,1-.92-1.6c0-.59.41-.82.92-.53A2,2,0,0,1,84,157.09Z"/><path class="cls-6" d="M97.67,166.69l-1.9-1.09a1.24,1.24,0,0,1-.51-1v-2c0-.38.23-.55.51-.39l1.9,1.1a1.23,1.23,0,0,1,.51,1v2C98.18,166.68,98,166.86,97.67,166.69Z"/><path class="cls-1" d="M100.4,186l-40-23.11a3.85,3.85,0,0,1-1.62-3.09v-7.64c0-1.19.72-1.74,1.62-1.22l40,23.11a3.86,3.86,0,0,1,1.63,3.09v7.64C102,186,101.3,186.54,100.4,186Z"/><path class="cls-7" d="M99.26,183.35,61.53,161.57a2,2,0,0,1-.82-1.58v-5.74c0-.6.36-.88.82-.62l37.73,21.78a2,2,0,0,1,.82,1.58v5.73C100.08,183.33,99.71,183.61,99.26,183.35Z"/><path class="cls-3" d="M69.39,163.2,63.76,160a1.91,1.91,0,0,1-.8-1.52h0c0-.59.36-.86.8-.61l5.63,3.25a1.93,1.93,0,0,1,.8,1.53h0C70.19,163.19,69.83,163.46,69.39,163.2Z"/><path class="cls-4" d="M74.19,164.91c0,.59-.41.83-.92.53a2,2,0,0,1-.93-1.6c0-.59.42-.82.93-.53A2,2,0,0,1,74.19,164.91Z"/><path class="cls-6" d="M77.44,166.79c0,.59-.41.82-.92.53a2,2,0,0,1-.92-1.6c0-.59.41-.82.92-.53A2,2,0,0,1,77.44,166.79Z"/><path class="cls-3" d="M80.7,168.67c0,.59-.41.82-.92.53a2,2,0,0,1-.93-1.6c0-.59.42-.83.93-.53A2,2,0,0,1,80.7,168.67Z"/><path class="cls-6" d="M84,170.55c0,.59-.42.82-.93.53a2,2,0,0,1-.92-1.6c0-.59.41-.83.92-.53A2,2,0,0,1,84,170.55Z"/><path class="cls-6" d="M97.67,180.15l-1.9-1.09a1.26,1.26,0,0,1-.51-1v-2c0-.38.23-.55.51-.39l1.9,1.1a1.23,1.23,0,0,1,.51,1v2C98.18,180.14,98,180.32,97.67,180.15Z"/><path class="cls-1" d="M100.4,199.48l-40-23.11a3.85,3.85,0,0,1-1.62-3.1v-7.63c0-1.19.72-1.74,1.62-1.22l40,23.1a3.89,3.89,0,0,1,1.63,3.1v7.64C102,199.45,101.3,200,100.4,199.48Z"/><path class="cls-7" d="M99.26,196.81,61.53,175a1.94,1.94,0,0,1-.82-1.57v-5.74c0-.6.36-.88.82-.62l37.73,21.78a2,2,0,0,1,.82,1.58v5.73C100.08,196.79,99.71,197.07,99.26,196.81Z"/><path class="cls-3" d="M69.39,176.66l-5.63-3.25a1.91,1.91,0,0,1-.8-1.53h0c0-.58.36-.85.8-.6l5.63,3.25a1.93,1.93,0,0,1,.8,1.53h0C70.19,176.65,69.83,176.92,69.39,176.66Z"/><path class="cls-4" d="M74.19,178.37c0,.59-.41.82-.92.53a2,2,0,0,1-.93-1.6c0-.59.42-.83.93-.53A2,2,0,0,1,74.19,178.37Z"/><path class="cls-6" d="M77.44,180.25c0,.59-.41.82-.92.53a2,2,0,0,1-.92-1.6c0-.59.41-.83.92-.53A2,2,0,0,1,77.44,180.25Z"/><path class="cls-3" d="M80.7,182.13c0,.58-.41.82-.92.53a2.06,2.06,0,0,1-.93-1.6c0-.59.42-.83.93-.53A2,2,0,0,1,80.7,182.13Z"/><path class="cls-6" d="M84,184c0,.58-.42.82-.93.53a2,2,0,0,1-.92-1.6c0-.59.41-.83.92-.53A2,2,0,0,1,84,184Z"/><path class="cls-6" d="M97.67,193.61l-1.9-1.09a1.26,1.26,0,0,1-.51-1v-2c0-.38.23-.55.51-.39l1.9,1.1a1.23,1.23,0,0,1,.51,1v2C98.18,193.6,98,193.77,97.67,193.61Z"/><path class="cls-1" d="M100.4,212.94l-40-23.11a3.87,3.87,0,0,1-1.62-3.1V179.1c0-1.19.72-1.74,1.62-1.23l40,23.11a3.89,3.89,0,0,1,1.63,3.1v7.63C102,212.91,101.3,213.46,100.4,212.94Z"/><path class="cls-7" d="M99.26,210.26,61.53,188.48a1.94,1.94,0,0,1-.82-1.57v-5.74c0-.6.36-.88.82-.62l37.73,21.78a2,2,0,0,1,.82,1.57v5.74C100.08,210.25,99.71,210.53,99.26,210.26Z"/><path class="cls-3" d="M69.39,190.12l-5.63-3.25a1.91,1.91,0,0,1-.8-1.53h0c0-.58.36-.86.8-.6L69.39,188a1.91,1.91,0,0,1,.8,1.53h0C70.19,190.11,69.83,190.38,69.39,190.12Z"/><path class="cls-6" d="M74.19,191.83c0,.58-.41.82-.92.53a2.06,2.06,0,0,1-.93-1.6c0-.59.42-.83.93-.53A2,2,0,0,1,74.19,191.83Z"/><path class="cls-6" d="M77.44,193.71c0,.58-.41.82-.92.53a2,2,0,0,1-.92-1.6c0-.59.41-.83.92-.53A2,2,0,0,1,77.44,193.71Z"/><path class="cls-3" d="M80.7,195.58c0,.59-.41.83-.92.54a2.06,2.06,0,0,1-.93-1.6c0-.59.42-.83.93-.53A2,2,0,0,1,80.7,195.58Z"/><path class="cls-6" d="M84,197.46c0,.59-.42.83-.93.54a2,2,0,0,1-.92-1.6c0-.59.41-.83.92-.53A2,2,0,0,1,84,197.46Z"/><path class="cls-3" d="M97.67,207.07l-1.9-1.1a1.23,1.23,0,0,1-.51-1v-2c0-.38.23-.55.51-.39l1.9,1.1a1.23,1.23,0,0,1,.51,1v2C98.18,207.06,98,207.23,97.67,207.07Z"/><path class="cls-1" d="M100.4,226.4l-40-23.11a3.87,3.87,0,0,1-1.62-3.1v-7.63c0-1.2.72-1.74,1.62-1.23l40,23.11a3.89,3.89,0,0,1,1.63,3.1v7.63C102,226.37,101.3,226.92,100.4,226.4Z"/><path class="cls-7" d="M99.26,223.72,61.53,201.94a2,2,0,0,1-.82-1.57v-5.74c0-.61.36-.88.82-.62l37.73,21.78a2,2,0,0,1,.82,1.57v5.74C100.08,223.71,99.71,224,99.26,223.72Z"/><path class="cls-3" d="M69.39,203.58l-5.63-3.25a1.93,1.93,0,0,1-.8-1.53h0c0-.59.36-.86.8-.6l5.63,3.25a1.91,1.91,0,0,1,.8,1.53h0C70.19,203.56,69.83,203.83,69.39,203.58Z"/><path class="cls-6" d="M74.19,205.28c0,.59-.41.83-.92.54a2.06,2.06,0,0,1-.93-1.6c0-.59.42-.83.93-.53A2,2,0,0,1,74.19,205.28Z"/><path class="cls-4" d="M77.44,207.16c0,.59-.41.83-.92.54a2,2,0,0,1-.92-1.6c0-.59.41-.83.92-.53A2,2,0,0,1,77.44,207.16Z"/><path class="cls-3" d="M80.7,209c0,.59-.41.83-.92.54a2.06,2.06,0,0,1-.93-1.6c0-.59.42-.83.93-.53A2,2,0,0,1,80.7,209Z"/><path class="cls-4" d="M84,210.92c0,.59-.42.83-.93.54a2,2,0,0,1-.92-1.6c0-.59.41-.83.92-.54A2.06,2.06,0,0,1,84,210.92Z"/><path class="cls-3" d="M97.67,220.53l-1.9-1.1a1.23,1.23,0,0,1-.51-1v-2c0-.38.23-.55.51-.39l1.9,1.09a1.26,1.26,0,0,1,.51,1v2C98.18,220.52,98,220.69,97.67,220.53Z"/><path class="cls-1" d="M100.4,239.86l-40-23.11a3.88,3.88,0,0,1-1.62-3.1V206c0-1.2.72-1.75,1.62-1.23l40,23.11A3.89,3.89,0,0,1,102,231v7.63C102,239.83,101.3,240.38,100.4,239.86Z"/><path class="cls-7" d="M99.26,237.18,61.53,215.4a2,2,0,0,1-.82-1.57v-5.74c0-.61.36-.88.82-.62l37.73,21.78a2,2,0,0,1,.82,1.57v5.74C100.08,237.17,99.71,237.44,99.26,237.18Z"/><path class="cls-3" d="M69.39,217l-5.63-3.25a1.93,1.93,0,0,1-.8-1.53h0c0-.59.36-.86.8-.6l5.63,3.25a1.91,1.91,0,0,1,.8,1.52h0C70.19,217,69.83,217.29,69.39,217Z"/><path class="cls-6" d="M74.19,218.74c0,.59-.41.83-.92.54a2.06,2.06,0,0,1-.93-1.6c0-.59.42-.83.93-.54A2,2,0,0,1,74.19,218.74Z"/><path class="cls-6" d="M77.44,220.62c0,.59-.41.83-.92.54a2,2,0,0,1-.92-1.6c0-.59.41-.83.92-.54A2,2,0,0,1,77.44,220.62Z"/><path class="cls-3" d="M80.7,222.5c0,.59-.41.83-.92.54a2.06,2.06,0,0,1-.93-1.6c0-.59.42-.83.93-.54A2,2,0,0,1,80.7,222.5Z"/><path class="cls-6" d="M84,224.38c0,.59-.42.83-.93.53a2,2,0,0,1-.92-1.59c0-.59.41-.83.92-.54A2.06,2.06,0,0,1,84,224.38Z"/><path class="cls-6" d="M97.67,234l-1.9-1.1a1.23,1.23,0,0,1-.51-1v-2c0-.38.23-.56.51-.39l1.9,1.09a1.24,1.24,0,0,1,.51,1v2C98.18,234,98,234.15,97.67,234Z"/><path class="cls-1" d="M100.4,253.32l-40-23.11a3.88,3.88,0,0,1-1.62-3.1v-7.63c0-1.2.72-1.75,1.62-1.23l40,23.11a3.88,3.88,0,0,1,1.63,3.1v7.63C102,253.28,101.3,253.83,100.4,253.32Z"/><path class="cls-7" d="M99.26,250.64,61.53,228.86a2,2,0,0,1-.82-1.57v-5.74c0-.61.36-.89.82-.62l37.73,21.78a2,2,0,0,1,.82,1.57V250C100.08,250.62,99.71,250.9,99.26,250.64Z"/><path class="cls-3" d="M69.39,230.5l-5.63-3.25a1.93,1.93,0,0,1-.8-1.53h0c0-.59.36-.86.8-.6l5.63,3.25a1.9,1.9,0,0,1,.8,1.52h0C70.19,230.48,69.83,230.75,69.39,230.5Z"/><ellipse class="cls-4" cx="73.47" cy="231.92" rx="1.42" ry="2.47" transform="translate(-106.13 67.82) rotate(-30)"/><path class="cls-6" d="M82,236.88c0,.58-.41.82-.92.53a2.06,2.06,0,0,1-.93-1.6c0-.59.42-.83.93-.53A2,2,0,0,1,82,236.88Z"/><path class="cls-3" d="M85.22,238.76c0,.58-.42.82-.93.53a2,2,0,0,1-.92-1.6c0-.59.41-.83.92-.53A2,2,0,0,1,85.22,238.76Z"/><path class="cls-6" d="M88.47,240.64c0,.58-.41.82-.92.53a2,2,0,0,1-.92-1.6c0-.59.41-.83.92-.53A2,2,0,0,1,88.47,240.64Z"/><path class="cls-3" d="M97.67,247.45l-1.9-1.1a1.23,1.23,0,0,1-.51-1v-2c0-.37.23-.55.51-.38l1.9,1.09a1.23,1.23,0,0,1,.51,1v2C98.18,247.44,98,247.61,97.67,247.45Z"/></g></g></svg>