<svg xmlns="http://www.w3.org/2000/svg" viewBox="0 0 424 480"><defs><style>.cls-1{fill:#0adcc8;}.cls-2{fill:#535b82;}</style></defs><title>contact</title><g id="Layer_2" data-name="Layer 2"><g id="Layer_5" data-name="Layer 5"><path class="cls-1" d="M56,264A56.07,56.07,0,0,0,0,320V472a8,8,0,0,0,8,8H304a8,8,0,0,0,8-8V336h56a56.07,56.07,0,0,0,56-56V144a32.06,32.06,0,0,0-24-31V96a24,24,0,0,0-48,0V264H232V248h96a8,8,0,0,0,8-8V48a8,8,0,0,0-8-8H232V24A24,24,0,0,0,208,0H160a24,24,0,0,0-24,24V40H40a8,8,0,0,0-8,8V240a8,8,0,0,0,8,8h96v16Zm170.21,16h18.48l-35.83,35.82L195.72,298.3Zm-55.65,47.25L184,309.33l13.44,17.92L184,340.69Zm8.49,30.88a7.49,7.49,0,0,0,9.9,0L206.56,464H161.44Zm-19.91-42.31L123.31,280h18.48l30.49,18.3ZM16,320a40.05,40.05,0,0,1,40-40h44.69l64.42,64.43L145.22,464H72V328H56V464H16ZM376,88a8,8,0,0,1,8,8v24a8,8,0,0,0,8,8,16,16,0,0,1,16,16H368V96A8,8,0,0,1,376,88ZM360,280a8,8,0,0,0,8-8V160h40V280a40.05,40.05,0,0,1-40,40H304a8,8,0,0,0-8,8V464H222.78l-19.9-119.57,10.77-10.77L267.31,280ZM48,184.64V123.31l18.34,18.35A8,8,0,0,0,72,144H97.14a31.84,31.84,0,0,0,61.72,0h50.28a31.84,31.84,0,0,0,61.72,0H296a8,8,0,0,0,5.66-2.34L320,123.31v61.33A56,56,0,0,0,272.64,232H95.36A56,56,0,0,0,48,184.64ZM112,136a16,16,0,1,1,16,16A16,16,0,0,1,112,136Zm112,0a16,16,0,1,1,16,16A16,16,0,0,1,224,136Zm64.81,96A40.11,40.11,0,0,1,320,200.81V232ZM152,24a8,8,0,0,1,8-8h48a8,8,0,0,1,8,8V40H152ZM320,56v44.69L292.69,128H270.86a31.84,31.84,0,0,0-61.72,0H158.86a31.84,31.84,0,0,0-61.72,0H75.31L48,100.69V56ZM48,200.81A40.11,40.11,0,0,1,79.19,232H48ZM216,248v19.47l-32,19.2-32-19.2V248Z"/><circle class="cls-2" cx="128.47" cy="136.15" r="17.96"/><circle class="cls-2" cx="240" cy="136.15" r="17.96"/></g></g></svg>