<svg xmlns="http://www.w3.org/2000/svg" xmlns:xlink="http://www.w3.org/1999/xlink" viewBox="0 0 364.35 321.34"><defs><style>.cls-1{opacity:0.4;}.cls-2,.cls-3,.cls-4{fill:#fff;}.cls-3{opacity:0.2;}.cls-27,.cls-4{opacity:0.5;}.cls-5{fill:#7dc3ea;}.cls-6{fill:url(#Áåçûìÿííûé_ãðàäèåíò_3);}.cls-7{fill:url(#Áåçûìÿííûé_ãðàäèåíò_9);}.cls-8{fill:url(#Áåçûìÿííûé_ãðàäèåíò_13);}.cls-9{fill:url(#Áåçûìÿííûé_ãðàäèåíò_3-2);}.cls-10{fill:url(#Áåçûìÿííûé_ãðàäèåíò_9-2);}.cls-11{fill:url(#Áåçûìÿííûé_ãðàäèåíò_13-2);}.cls-12{fill:url(#Áåçûìÿííûé_ãðàäèåíò_3-3);}.cls-13{fill:url(#Áåçûìÿííûé_ãðàäèåíò_9-3);}.cls-14{fill:url(#Áåçûìÿííûé_ãðàäèåíò_13-3);}.cls-15{fill:url(#Áåçûìÿííûé_ãðàäèåíò_3-4);}.cls-16{fill:url(#Áåçûìÿííûé_ãðàäèåíò_9-4);}.cls-17{fill:url(#Áåçûìÿííûé_ãðàäèåíò_13-4);}.cls-18{fill:url(#Áåçûìÿííûé_ãðàäèåíò_18);}.cls-19{fill:url(#Áåçûìÿííûé_ãðàäèåíò_9-5);}.cls-20{fill:#5793ce;}.cls-21{fill:url(#Áåçûìÿííûé_ãðàäèåíò_441);}.cls-22,.cls-27{fill:#173d7a;}.cls-23{fill:#396caa;}.cls-24{fill:#06033e;opacity:0.3;}.cls-25{fill:#d4ecff;}.cls-26{fill:#ff2c9c;}.cls-28{fill:url(#Áåçûìÿííûé_ãðàäèåíò_13-5);}.cls-29{fill:url(#Áåçûìÿííûé_ãðàäèåíò_45);}.cls-30{fill:url(#Áåçûìÿííûé_ãðàäèåíò_13-6);}.cls-31{fill:url(#Áåçûìÿííûé_ãðàäèåíò_45-2);}.cls-32{fill:url(#Áåçûìÿííûé_ãðàäèåíò_13-7);}.cls-33{fill:url(#Áåçûìÿííûé_ãðàäèåíò_45-3);}</style><radialGradient id="Áåçûìÿííûé_ãðàäèåíò_3" cx="53.57" cy="260.88" r="33.67" gradientUnits="userSpaceOnUse"><stop offset="0" stop-color="#274f89"/><stop offset="1" stop-color="#173d7a"/></radialGradient><linearGradient id="Áåçûìÿííûé_ãðàäèåíò_9" x1="33.11" y1="248.66" x2="92.69" y2="248.66" gradientUnits="userSpaceOnUse"><stop offset="0" stop-color="#d4ecff"/><stop offset="0.24" stop-color="#d0eafe"/><stop offset="0.46" stop-color="#c5e2f9"/><stop offset="0.67" stop-color="#b2d6f2"/><stop offset="0.88" stop-color="#98c4e7"/><stop offset="1" stop-color="#86b8e0"/></linearGradient><radialGradient id="Áåçûìÿííûé_ãðàäèåíò_13" cx="5.16" cy="226.04" r="60.86" gradientUnits="userSpaceOnUse"><stop offset="0" stop-color="#699dd1"/><stop offset="0.27" stop-color="#6396cc"/><stop offset="0.64" stop-color="#5184bd"/><stop offset="1" stop-color="#396caa"/></radialGradient><radialGradient id="Áåçûìÿííûé_ãðàäèåíò_3-2" cx="306.51" cy="120.39" r="33.67" xlink:href="#Áåçûìÿííûé_ãðàäèåíò_3"/><linearGradient id="Áåçûìÿííûé_ãðàäèåíò_9-2" x1="286.05" y1="108.17" x2="345.63" y2="108.17" xlink:href="#Áåçûìÿííûé_ãðàäèåíò_9"/><radialGradient id="Áåçûìÿííûé_ãðàäèåíò_13-2" cx="258.1" cy="85.54" r="60.86" xlink:href="#Áåçûìÿííûé_ãðàäèåíò_13"/><radialGradient id="Áåçûìÿííûé_ãðàäèåíò_3-3" cx="306.51" cy="260.88" r="33.67" xlink:href="#Áåçûìÿííûé_ãðàäèåíò_3"/><linearGradient id="Áåçûìÿííûé_ãðàäèåíò_9-3" x1="286.05" y1="248.66" x2="345.63" y2="248.66" xlink:href="#Áåçûìÿííûé_ãðàäèåíò_9"/><radialGradient id="Áåçûìÿííûé_ãðàäèåíò_13-3" cx="258.1" cy="226.04" r="60.86" xlink:href="#Áåçûìÿííûé_ãðàäèåíò_13"/><radialGradient id="Áåçûìÿííûé_ãðàäèåíò_3-4" cx="53.57" cy="120.39" r="33.67" xlink:href="#Áåçûìÿííûé_ãðàäèåíò_3"/><linearGradient id="Áåçûìÿííûé_ãðàäèåíò_9-4" x1="33.11" y1="108.17" x2="92.69" y2="108.17" xlink:href="#Áåçûìÿííûé_ãðàäèåíò_9"/><radialGradient id="Áåçûìÿííûé_ãðàäèåíò_13-4" cx="5.16" cy="85.54" r="60.86" xlink:href="#Áåçûìÿííûé_ãðàäèåíò_13"/><radialGradient id="Áåçûìÿííûé_ãðàäèåíò_18" cx="158.08" cy="116" r="121.15" gradientUnits="userSpaceOnUse"><stop offset="0" stop-color="#396caa"/><stop offset="1" stop-color="#274f89"/></radialGradient><linearGradient id="Áåçûìÿííûé_ãðàäèåíò_9-5" x1="119.98" y1="30.06" x2="232.94" y2="98.88" xlink:href="#Áåçûìÿííûé_ãðàäèåíò_9"/><linearGradient id="Áåçûìÿííûé_ãðàäèåíò_441" x1="-182.72" y1="1279.98" x2="-116.34" y2="1264.94" gradientTransform="matrix(0.87, 0.5, 0, 1.15, 274.95, -1256.91)" gradientUnits="userSpaceOnUse"><stop offset="0" stop-color="#3919bb"/><stop offset="1" stop-color="#6507fa"/></linearGradient><radialGradient id="Áåçûìÿííûé_ãðàäèåíò_13-5" cx="144.59" cy="259.7" r="43.62" xlink:href="#Áåçûìÿííûé_ãðàäèåíò_13"/><linearGradient id="Áåçûìÿííûé_ãðàäèåíò_45" x1="152.82" y1="245.71" x2="221.16" y2="286.45" gradientUnits="userSpaceOnUse"><stop offset="0" stop-color="#d4ecff"/><stop offset="0.2" stop-color="#d0eafe"/><stop offset="0.39" stop-color="#c5e2f9"/><stop offset="0.57" stop-color="#b2d6f2"/><stop offset="0.74" stop-color="#98c4e7"/><stop offset="0.84" stop-color="#86b8e0"/></linearGradient><radialGradient id="Áåçûìÿííûé_ãðàäèåíò_13-6" cx="271.07" cy="171.78" r="43.62" xlink:href="#Áåçûìÿííûé_ãðàäèåíò_13"/><linearGradient id="Áåçûìÿííûé_ãðàäèåíò_45-2" x1="279.3" y1="157.79" x2="347.63" y2="198.53" xlink:href="#Áåçûìÿííûé_ãðàäèåíò_45"/><radialGradient id="Áåçûìÿííûé_ãðàäèåíò_13-7" cx="18.12" cy="171.78" r="43.62" xlink:href="#Áåçûìÿííûé_ãðàäèåíò_13"/><linearGradient id="Áåçûìÿííûé_ãðàäèåíò_45-3" x1="26.36" y1="157.79" x2="94.69" y2="198.53" xlink:href="#Áåçûìÿííûé_ãðàäèåíò_45"/></defs><title>Asset 1</title><g id="Layer_2" data-name="Layer 2"><g id="Ñëîé_1" data-name="Ñëîé 1"><g class="cls-1"><path class="cls-2" d="M333.06,88.81,301.77,70.75l31.29-18.06.27.16,31,17.9ZM304,70.75l29.07,16.78,29.07-16.78L333.06,54Z"/><path class="cls-2" d="M272.7,88.81,241.42,70.75,272.7,52.69,304,70.75ZM243.63,70.75,272.7,87.53l29.07-16.78L272.7,54Z"/><path class="cls-2" d="M302.88,106.23l-.28-.16-31-17.9,31.29-18.06,31.28,18.06ZM273.81,88.17,302.88,105,332,88.17,302.88,71.39Z"/><path class="cls-2" d="M333.06,123.66l-.28-.16-31-17.91,31.29-18.06.27.16,31,17.9ZM304,105.59l29.07,16.79,29.07-16.79L333.06,88.81Z"/><path class="cls-2" d="M212.35,88.81l-.28-.16-31-17.9,31.29-18.06.27.16,31,17.9ZM183.28,70.75l29.07,16.78,29.07-16.78L212.35,54Z"/><path class="cls-2" d="M242.53,106.23,211.24,88.17l31.29-18.06,31.28,18.06ZM213.46,88.17,242.53,105l29.06-16.78L242.53,71.39Z"/><path class="cls-2" d="M272.7,123.66l-.27-.16-31-17.91L272.7,87.53l.28.16,31,17.9Zm-29.07-18.07,29.07,16.79,29.07-16.79L272.7,88.81Z"/><path class="cls-2" d="M302.88,141.08l-.28-.16-31-17.9L302.88,105l.28.16,31,17.91ZM273.81,123l29.07,16.78L332,123l-29.07-16.79Z"/><path class="cls-2" d="M333.06,158.5l-.28-.16-31-17.9,31.29-18.06,31.28,18.06ZM304,140.44l29.07,16.78,29.07-16.78-29.07-16.78Z"/><path class="cls-2" d="M152,88.81l-.27-.16-31-17.9L152,52.68l.28.16,31,17.91ZM122.92,70.75,152,87.53l29.07-16.78L152,54Z"/><path class="cls-2" d="M182.17,106.23l-.27-.16-31-17.9,31.28-18.06.28.16,31,17.9ZM153.1,88.17,182.17,105l29.07-16.78L182.17,71.39Z"/><path class="cls-2" d="M212.35,123.66l-.28-.16-31-17.91,31.29-18.06,31.28,18.06Zm-29.07-18.07,29.07,16.79,29.07-16.79L212.35,88.81Z"/><path class="cls-2" d="M242.53,141.08,211.24,123,242.53,105l.27.16,31,17.91ZM213.46,123l29.07,16.78L271.6,123l-29.07-16.79Z"/><path class="cls-2" d="M272.7,158.5l-.27-.16-31-17.9,31.28-18.06.28.16,31,17.9Zm-29.07-18.06,29.07,16.78,29.07-16.78L272.7,123.66Z"/><path class="cls-2" d="M302.88,175.92l-.27-.16-31-17.9,31.28-18.06.28.16,31,17.9Zm-29.07-18.06,29.07,16.79L332,157.86l-29.07-16.78Z"/><path class="cls-2" d="M333.06,193.35l-.28-.16-31-17.9,31.29-18.07.28.16,31,17.91ZM304,175.29l29.07,16.78,29.07-16.78L333.06,158.5Z"/><path class="cls-2" d="M91.64,88.81l-.28-.16-31-17.9L91.64,52.68l.28.16,31,17.91ZM62.57,70.75,91.64,87.53l29.07-16.78L91.64,54Z"/><path class="cls-2" d="M121.82,106.23,90.53,88.17l31.29-18.06.27.16,31,17.9ZM92.75,88.17,121.82,105l29.07-16.78L121.82,71.39Z"/><path class="cls-2" d="M152,123.66l-.28-.16-31-17.91L152,87.53l.28.16,31,17.9Zm-29.08-18.07L152,122.38l29.06-16.79L152,88.81Z"/><path class="cls-2" d="M182.17,141.08l-.27-.16-31-17.9L182.17,105l.28.16,31,17.91ZM153.1,123l29.07,16.78L211.24,123l-29.07-16.79Z"/><path class="cls-2" d="M212.35,158.5l-31.28-18.06,31.28-18.06,31.28,18.06Zm-29.07-18.06,29.07,16.78,29.07-16.78-29.07-16.78Z"/><path class="cls-2" d="M242.53,175.92l-.28-.16-31-17.9,31.29-18.06.27.16,31,17.9Zm-29.07-18.06,29.07,16.78,29.07-16.78-29.07-16.78Z"/><path class="cls-2" d="M272.71,193.35l-31.29-18.07,31.28-18.06.28.16,31,17.91Zm-29.08-18.07,29.08,16.79,29.06-16.78L272.7,158.5Z"/><path class="cls-2" d="M302.88,210.77l-.27-.16-31-17.9,31.28-18.06.28.16,31,17.9Zm-29.07-18.06,29.07,16.78L332,192.71l-29.07-16.79Z"/><path class="cls-2" d="M333.06,228.19l-.28-.16-31-17.9,31.28-18.06.28.16,31,17.9ZM304,210.13l29.07,16.78,29.07-16.78-29.07-16.78Z"/><path class="cls-2" d="M31.29,88.81,31,88.65,0,70.75,31.28,52.68l.28.16,31,17.91ZM2.21,70.75,31.29,87.53,60.35,70.75,31.28,54Z"/><path class="cls-2" d="M61.46,106.23l-.27-.16-31-17.9L61.46,70.11l.28.16,31,17.9ZM32.39,88.17,61.46,105,90.53,88.17,61.46,71.39Z"/><path class="cls-2" d="M91.64,123.65l-.28-.16-31-17.9L91.64,87.53l31.28,18.06ZM62.57,105.59l29.07,16.78,29.07-16.78L91.64,88.81Z"/><path class="cls-2" d="M121.82,141.08,90.53,123,121.82,105l.27.16,31,17.91ZM92.75,123l29.07,16.79L150.89,123l-29.07-16.79Z"/><path class="cls-2" d="M152,158.5l-.28-.16-31-17.9L152,122.38l.27.16,31,17.9Zm-29.07-18.06L152,157.22l29.07-16.78L152,123.66Z"/><path class="cls-2" d="M182.17,175.92l-31.28-18.06,31.28-18.06,31.29,18.06ZM153.1,157.86l29.07,16.78,29.07-16.78-29.07-16.78Z"/><path class="cls-2" d="M212.35,193.35l-.28-.16-31-17.91,31.28-18.06.28.16,31,17.9Zm-29.07-18.07,29.07,16.79,29.07-16.79L212.35,158.5Z"/><path class="cls-2" d="M242.53,210.77l-.28-.16-31-17.9,31.29-18.07,31.28,18.07Zm-29.07-18.06,29.07,16.78,29.07-16.78-29.07-16.79Z"/><path class="cls-2" d="M272.71,228.19l-31.29-18.06,31.29-18.06.27.16,31,17.9Zm-29.07-18.06,29.07,16.78,29.07-16.78-29.07-16.78Z"/><path class="cls-2" d="M302.88,245.62l-.27-.16-31-17.91,31.28-18.06.28.16,31,17.9Zm-29.07-18.07,29.07,16.79L332,227.55l-29.07-16.78Z"/><path class="cls-2" d="M333.06,263l-.27-.16-31-17.9,31.28-18.07.28.16,31,17.91ZM304,245l29.07,16.78L362.13,245l-29.07-16.79Z"/><path class="cls-2" d="M31.29,123.65l-.28-.16L0,105.59,31.29,87.53l.27.16,31,17.9ZM2.22,105.59l29.07,16.78,29.07-16.78L31.29,88.81Z"/><path class="cls-2" d="M61.46,141.08l-.27-.16L30.18,123,61.46,105l.28.16,31,17.9ZM32.39,123,61.46,139.8,90.53,123,61.46,106.23Z"/><path class="cls-2" d="M91.64,158.5l-.27-.16-31-17.9,31.28-18.07,31.29,18.07ZM62.57,140.44l29.07,16.78,29.07-16.78L91.64,123.65Z"/><path class="cls-2" d="M121.82,175.92l-.28-.16-31-17.9,31.29-18.06.27.16,31,17.9ZM92.75,157.86l29.07,16.78,29.07-16.78-29.07-16.78Z"/><path class="cls-2" d="M152,193.35l-31.29-18.07L152,157.22l31.28,18.06Zm-29.07-18.07L152,192.07l29.07-16.79L152,158.5Z"/><path class="cls-2" d="M182.17,210.77l-31.28-18.06,31.28-18.07.28.16,31,17.91ZM153.1,192.71l29.07,16.78,29.07-16.78-29.07-16.79Z"/><path class="cls-2" d="M212.35,228.19l-.27-.16-31-17.9,31.28-18.06.28.16,31,17.9Zm-29.07-18.06,29.07,16.78,29.07-16.78-29.07-16.78Z"/><path class="cls-2" d="M242.53,245.62l-.28-.16-31-17.91,31.29-18.06,31.28,18.06Zm-29.07-18.07,29.07,16.79,29.07-16.79-29.07-16.78Z"/><path class="cls-2" d="M272.71,263l-.28-.16-31-17.9,31.29-18.07.27.16L304,245ZM243.64,245l29.07,16.78L301.78,245l-29.07-16.79Z"/><path class="cls-2" d="M302.88,280.46,271.6,262.4l31.28-18.06.28.16,31,17.9ZM273.81,262.4l29.07,16.78L332,262.4l-29.07-16.78Z"/><path class="cls-2" d="M333.06,297.88l-.27-.16-31-17.9,31.28-18.06.28.16,31,17.9ZM304,279.82l29.07,16.79,29.07-16.79L333.06,263Z"/><path class="cls-2" d="M31.29,158.5,0,140.44l31.29-18.07.27.17,31,17.9ZM2.22,140.44l29.07,16.78,29.07-16.78L31.29,123.65Z"/><path class="cls-2" d="M61.46,175.92l-.27-.16-31-17.9L61.46,139.8l.28.16,31,17.9ZM32.39,157.86l29.07,16.78,29.07-16.78L61.46,141.08Z"/><path class="cls-2" d="M91.64,193.35l-.27-.16-31-17.91,31.28-18.06.28.16,31,17.9ZM62.57,175.28l29.07,16.79,29.07-16.79L91.64,158.5Z"/><path class="cls-2" d="M121.82,210.77l-.28-.16-31-17.9,31.28-18.07,31.28,18.07ZM92.75,192.71l29.07,16.78,29.07-16.78-29.07-16.79Z"/><path class="cls-2" d="M152,228.19l-31.29-18.06L152,192.07l31.28,18.06Zm-29.07-18.06L152,226.91l29.07-16.78L152,193.35Z"/><path class="cls-2" d="M182.17,245.62l-31.28-18.07,31.28-18.06.28.16,31,17.9ZM153.1,227.55l29.07,16.79,29.07-16.79-29.07-16.78Z"/><path class="cls-2" d="M212.35,263l-.27-.16-31-17.9,31.28-18.07.28.16,31,17.91ZM183.28,245l29.07,16.78L241.42,245l-29.07-16.79Z"/><path class="cls-2" d="M242.53,280.46l-.28-.16-31-17.9,31.28-18.06.28.16,31,17.9ZM213.46,262.4l29.07,16.78L271.6,262.4l-29.07-16.78Z"/><path class="cls-2" d="M272.71,297.88l-.28-.16-31-17.9,31.29-18.06L304,279.82Zm-29.07-18.06,29.07,16.78,29.07-16.78L272.71,263Z"/><path class="cls-2" d="M31.29,193.35,0,175.28l31.29-18.06.27.16,31,17.9ZM2.22,175.28l29.07,16.79,29.07-16.79L31.29,158.5Z"/><path class="cls-2" d="M61.47,210.77l-.28-.16-31-17.9,31.28-18.07.28.16,31,17.91ZM32.4,192.71l29.07,16.78,29.07-16.78L61.46,175.92Z"/><path class="cls-2" d="M91.64,228.19l-.27-.16-31-17.9,31.28-18.06.28.16,31,17.9ZM62.57,210.13l29.07,16.78,29.07-16.78L91.64,193.35Z"/><path class="cls-2" d="M121.82,245.61,90.54,227.55l31.28-18.06,31.28,18.06ZM92.75,227.55l29.07,16.78,29.07-16.78-29.07-16.78Z"/><path class="cls-2" d="M152,263l-.28-.16-31-17.91L152,226.91,183.28,245ZM122.93,245,152,261.76,181.07,245,152,228.19Z"/><path class="cls-2" d="M182.18,280.46,150.89,262.4l31.28-18.06.28.16,31,17.9ZM153.11,262.4l29.07,16.78,29.07-16.78-29.08-16.78Z"/><path class="cls-2" d="M212.35,297.88l-.27-.16-31-17.9,31.28-18.06.28.16,31,17.9Zm-29.07-18.06,29.07,16.78,29.07-16.78L212.35,263Z"/><path class="cls-2" d="M31.29,228.19,31,228,0,210.13l31.29-18.06.27.16,31,17.9ZM2.22,210.13l29.07,16.78,29.07-16.78L31.29,193.35Z"/><path class="cls-2" d="M61.47,245.61,30.18,227.55l31.29-18.06.27.16,31,17.9ZM32.4,227.55l29.07,16.78,29.07-16.78L61.47,210.77Z"/><path class="cls-2" d="M91.64,263l-.27-.16L60.36,245l31.28-18.06L122.93,245ZM62.57,245l29.07,16.79L120.71,245,91.64,228.19Z"/><path class="cls-2" d="M121.82,280.46,90.54,262.4l31.28-18.07.28.17,31,17.9ZM92.75,262.4l29.07,16.78,29.07-16.78-29.07-16.79Z"/><path class="cls-2" d="M152,297.88l-.28-.16-31-17.9L152,261.76l31.28,18.06Zm-29.07-18.06L152,296.6l29.07-16.78L152,263Z"/><path class="cls-2" d="M31.29,263l-.28-.16L0,245l31.29-18.06L62.57,245ZM2.22,245l29.07,16.79L60.36,245,31.29,228.19Z"/><path class="cls-2" d="M61.47,280.46l-.28-.16-31-17.9,31.29-18.07.27.17,31,17.9ZM32.4,262.4l29.07,16.78L90.54,262.4,61.47,245.61Z"/><path class="cls-2" d="M91.64,297.88,60.36,279.82l31.28-18.06,31.29,18.06ZM62.58,279.82,91.64,296.6l29.07-16.78L91.64,263Z"/><path class="cls-2" d="M31.29,297.88l-.28-.16L0,279.82l31.28-18.06.28.16,31,17.9ZM2.22,279.82,31.29,296.6l29.07-16.78L31.29,263Z"/></g><path class="cls-2" d="M240.48,251.48a6.44,6.44,0,0,1-2.92,5.06c-1.61.93-2.92.17-2.92-1.69a6.45,6.45,0,0,1,2.92-5C239.18,248.87,240.48,249.62,240.48,251.48Z"/><path class="cls-2" d="M249.94,246a6.46,6.46,0,0,1-2.91,5.06c-1.62.93-2.92.17-2.92-1.69a6.46,6.46,0,0,1,2.92-5.06C248.64,243.4,249.94,244.16,249.94,246Z"/><path class="cls-2" d="M259.41,240.56a6.45,6.45,0,0,1-2.92,5.05c-1.61.93-2.92.18-2.92-1.68a6.47,6.47,0,0,1,2.92-5.06C258.1,237.94,259.41,238.7,259.41,240.56Z"/><path class="cls-2" d="M268.87,235.09a6.45,6.45,0,0,1-2.92,5.06c-1.61.93-2.92.18-2.92-1.68a6.45,6.45,0,0,1,2.92-5.06C267.56,232.48,268.87,233.23,268.87,235.09Z"/><path class="cls-2" d="M104.21,303.66a6.47,6.47,0,0,1-2.92,5.06c-1.62.93-2.92.17-2.92-1.69a6.42,6.42,0,0,1,2.92-5C102.9,301.05,104.21,301.8,104.21,303.66Z"/><path class="cls-2" d="M112.26,299a6.47,6.47,0,0,1-2.92,5.06c-1.61.93-2.92.17-2.92-1.69a6.45,6.45,0,0,1,2.92-5.05C111,296.4,112.26,297.15,112.26,299Z"/><path class="cls-2" d="M104.21,294.36a6.45,6.45,0,0,1-2.92,5.06c-1.62.93-2.92.18-2.92-1.69a6.42,6.42,0,0,1,2.92-5.05C102.9,291.75,104.21,292.5,104.21,294.36Z"/><path class="cls-2" d="M112.26,289.71a6.45,6.45,0,0,1-2.92,5.06c-1.61.93-2.92.18-2.92-1.68a6.45,6.45,0,0,1,2.92-5.06C111,287.1,112.26,287.85,112.26,289.71Z"/><polygon class="cls-2" points="77.16 70.66 71.32 74.03 71.32 67.29 77.16 63.92 77.16 70.66"/><polygon class="cls-2" points="85.26 65.92 79.42 69.29 79.42 62.55 85.26 59.18 85.26 65.92"/><polygon class="cls-2" points="77.21 79.4 71.37 82.77 71.37 76.03 77.21 72.66 77.21 79.4"/><polygon class="cls-2" points="85.26 74.75 79.42 78.13 79.42 71.38 85.26 68.01 85.26 74.75"/><path class="cls-3" d="M315.33,3.8a11.08,11.08,0,0,0-2.86,2.45c-.13-5.62-4.16-7.87-9.13-5A16.56,16.56,0,0,0,299,5.08c-2.22-3.87-6.8-4.76-12.11-1.7-7.47,4.31-13.52,14.8-13.52,23.42a16.15,16.15,0,0,0,.14,2,5.07,5.07,0,0,0-3.79.76,14.3,14.3,0,0,0-6.47,11.2c0,4.13,2.9,5.8,6.47,3.74l45.66-26.36a13.76,13.76,0,0,0,6.22-10.77C321.55,3.42,318.76,1.81,315.33,3.8Z"/><path class="cls-4" d="M323.46,11a10.88,10.88,0,0,0-2.85,2.45c-.13-5.63-4.17-7.87-9.14-5a16.72,16.72,0,0,0-4.39,3.83c-2.21-3.87-6.79-4.77-12.1-1.7-7.47,4.31-13.52,14.8-13.52,23.42a16,16,0,0,0,.13,2,5.1,5.1,0,0,0-3.78.77A14.28,14.28,0,0,0,271.34,48c0,4.13,2.89,5.8,6.47,3.74l45.65-26.36a13.73,13.73,0,0,0,6.22-10.77C329.68,10.59,326.9,9,323.46,11Z"/><path class="cls-2" d="M331.6,18.14a11.08,11.08,0,0,0-2.86,2.45c-.13-5.63-4.16-7.87-9.13-5a16.38,16.38,0,0,0-4.39,3.83c-2.21-3.87-6.8-4.77-12.11-1.7-7.46,4.31-13.52,14.8-13.52,23.42a16,16,0,0,0,.14,2,5.13,5.13,0,0,0-3.79.77,14.3,14.3,0,0,0-6.47,11.2c0,4.13,2.9,5.8,6.47,3.74L331.6,32.5a13.78,13.78,0,0,0,6.22-10.77C337.82,17.76,335,16.15,331.6,18.14Z"/><path class="cls-2" d="M66.46,219.49a1.51,1.51,0,0,1-.71-.19,1.42,1.42,0,0,1-.7-1.22V200a1.41,1.41,0,0,1,.7-1.22l15.67-9.05a1.42,1.42,0,0,1,2.12,1.22V209a1.4,1.4,0,0,1-.71,1.22L67.17,219.3A1.51,1.51,0,0,1,66.46,219.49Zm1.41-18.69v14.83l12.84-7.41V193.39ZM82.12,209h0Z"/><polygon class="cls-5" points="55.7 307.78 33.11 294.73 55.7 281.69 78.29 294.73 55.7 307.78"/><path class="cls-2" d="M55.7,299.7a1.79,1.79,0,0,1-.86-.23l-22.59-13a1.72,1.72,0,0,1,0-3l22.59-13a1.71,1.71,0,0,1,1.72,0l22.59,13a1.72,1.72,0,0,1,0,3l-22.59,13A1.73,1.73,0,0,1,55.7,299.7ZM36.55,284.94,55.7,296l19.16-11.06L55.7,273.88Z"/><polygon class="cls-6" points="78.29 274.75 55.7 287.79 55.7 261.71 78.29 248.66 78.29 274.75"/><polygon class="cls-7" points="55.7 261.71 33.11 248.66 55.7 235.62 78.29 248.66 55.7 261.71"/><polygon class="cls-8" points="55.7 287.79 33.11 274.75 33.11 248.66 55.7 261.71 55.7 287.79"/><polygon class="cls-2" points="47.57 273.7 41.25 270.05 41.25 262.76 47.57 266.4 47.57 273.7"/><polygon class="cls-5" points="308.64 167.28 286.05 154.24 308.64 141.19 331.24 154.24 308.64 167.28"/><path class="cls-2" d="M308.64,159.2a1.62,1.62,0,0,1-.85-.23l-22.59-13a1.71,1.71,0,0,1,0-3l22.59-13.05a1.74,1.74,0,0,1,1.71,0L332.09,143a1.71,1.71,0,0,1,0,3L309.5,159A1.63,1.63,0,0,1,308.64,159.2Zm-19.15-14.76,19.15,11.06,19.16-11.06-19.16-11.06Z"/><polygon class="cls-9" points="331.24 134.25 308.64 147.29 308.64 121.21 331.24 108.17 331.24 134.25"/><polygon class="cls-10" points="308.64 121.21 286.06 108.17 308.64 95.13 331.23 108.17 308.64 121.21"/><polygon class="cls-11" points="308.64 147.29 286.06 134.25 286.06 108.17 308.64 121.21 308.64 147.29"/><polygon class="cls-2" points="300.51 133.2 294.19 129.56 294.19 122.26 300.51 125.91 300.51 133.2"/><polygon class="cls-2" points="302.33 108.24 308.6 104.52 314.96 108.09 308.69 111.82 302.33 108.24"/><polygon class="cls-5" points="308.64 307.78 286.05 294.73 308.64 281.69 331.23 294.73 308.64 307.78"/><path class="cls-2" d="M308.64,299.7a1.72,1.72,0,0,1-.85-.23l-22.59-13a1.72,1.72,0,0,1,0-3l22.59-13a1.69,1.69,0,0,1,1.71,0l22.59,13a1.72,1.72,0,0,1,0,3l-22.59,13A1.73,1.73,0,0,1,308.64,299.7Zm-19.15-14.76L308.64,296l19.16-11.06-19.16-11.06Z"/><polygon class="cls-12" points="331.23 274.75 308.64 287.79 308.64 261.71 331.23 248.66 331.23 274.75"/><polygon class="cls-13" points="308.64 261.71 286.05 248.66 308.64 235.62 331.23 248.66 308.64 261.71"/><polygon class="cls-14" points="308.64 287.79 286.05 274.75 286.05 248.66 308.64 261.71 308.64 287.79"/><polygon class="cls-2" points="300.51 273.7 294.19 270.05 294.19 262.76 300.51 266.4 300.51 273.7"/><polygon class="cls-5" points="55.7 167.28 33.11 154.24 55.7 141.19 78.29 154.24 55.7 167.28"/><path class="cls-2" d="M55.7,159.2a1.68,1.68,0,0,1-.86-.23l-22.59-13a1.71,1.71,0,0,1,0-3l22.59-13.05a1.76,1.76,0,0,1,1.72,0L79.15,143a1.71,1.71,0,0,1,0,3L56.56,159A1.63,1.63,0,0,1,55.7,159.2ZM36.55,144.44,55.7,155.5l19.16-11.06L55.7,133.38Z"/><polygon class="cls-15" points="78.29 134.25 55.7 147.29 55.7 121.21 78.29 108.17 78.29 134.25"/><polygon class="cls-16" points="55.7 121.21 33.11 108.17 55.7 95.13 78.29 108.17 55.7 121.21"/><polygon class="cls-17" points="55.7 147.29 33.11 134.25 33.11 108.17 55.7 121.21 55.7 147.29"/><polygon class="cls-2" points="47.57 133.2 41.25 129.56 41.25 122.26 47.57 125.91 47.57 133.2"/><rect class="cls-2" x="226.25" y="145.34" width="75.86" height="3.43" transform="translate(-38.13 151.75) rotate(-29.99)"/><path class="cls-5" d="M176.84,259.4,118.91,226c-2.13-1.22-1.86-3.36.59-4.78l61.41-35.54c2.45-1.42,6.16-1.57,8.28-.35l57.94,33.45c2.12,1.23,1.85,3.37-.6,4.79l-61.4,35.54C182.67,260.48,179,260.63,176.84,259.4Z"/><path class="cls-2" d="M180.45,248.41a9,9,0,0,1-4.47-1l-57.93-33.45a4.15,4.15,0,0,1-2.29-3.56,5,5,0,0,1,2.88-4.19l61.41-35.55c3-1.71,7.36-1.86,10-.34L248,203.72a4.17,4.17,0,0,1,2.29,3.56,5,5,0,0,1-2.89,4.19L186,247A11.36,11.36,0,0,1,180.45,248.41Zm-2.75-4c1.59.92,4.66.76,6.57-.35l61.4-35.54c.86-.5,1.17-1,1.17-1.22s-.17-.36-.57-.59l-57.94-33.45c-1.59-.92-4.66-.75-6.56.35l-61.41,35.54c-.86.5-1.17,1-1.17,1.22s.18.36.58.59Z"/><path class="cls-18" d="M181,83.34s-31.8,3-51,4.5l50.81,144.71,67.21-38.76,0,0,.12-.07h0a3.74,3.74,0,0,0,1.38-3.32V48.93a10.22,10.22,0,0,0-1.17-4.51Z"/><path class="cls-19" d="M245.44,41,186.34,6.85a2.7,2.7,0,0,0-2.7-.23h0L116.16,45.55l3.18,11.77,16.92,48.18,3.19,1.84,109-62.93A8.35,8.35,0,0,0,245.44,41Z"/><path class="cls-20" d="M178,232.42,118.9,198.29c-2.29-1.32-4.16-4.88-4.16-7.95V48.9c0-3.07,1.87-4.48,4.16-3.15L178,79.88c2.3,1.32,4.16,4.88,4.16,8V229.27C182.17,232.34,180.31,233.75,178,232.42Z"/><path class="cls-2" d="M179.28,79.16,120.17,45c-1.33-.77-2.51-.62-3.27.24a3.08,3.08,0,0,1,2,.47L178,79.88c2.3,1.32,4.16,4.88,4.16,8V229.27a4.35,4.35,0,0,1-.88,2.91c1.28-.2,2.15-1.52,2.15-3.62V87.12C183.44,84.05,181.58,80.49,179.28,79.16Z"/><path class="cls-21" d="M174.29,223.9l-51.67-29.83c-2-1.16-3.64-4.27-3.64-6.95V55.76c0-2.68,1.63-3.91,3.64-2.75l51.67,29.83c2,1.16,3.64,4.27,3.64,7V221.15C177.93,223.83,176.3,225.07,174.29,223.9Z"/><path class="cls-21" d="M174.29,223.9l-51.67-29.83c-2-1.16-3.64-4.27-3.64-6.95V55.76c0-2.68,1.63-3.91,3.64-2.75l51.67,29.83c2,1.16,3.64,4.27,3.64,7V221.15C177.93,223.83,176.3,225.07,174.29,223.9Z"/><path class="cls-22" d="M174.29,223.9l-51.67-29.83c-2-1.16-3.64-4.27-3.64-6.95V55.76c0-2.68,1.63-3.91,3.64-2.75l51.67,29.83c2,1.16,3.64,4.27,3.64,7V221.15C177.93,223.83,176.3,225.07,174.29,223.9Z"/><path class="cls-23" d="M176,222.91l-51.67-29.83c-2-1.16-3.64-4.27-3.64-7V54.76a4.29,4.29,0,0,1,.52-2.19c-1.3,0-2.21,1.18-2.21,3.19V187.12c0,2.68,1.63,5.79,3.64,6.95l51.67,29.83c1.33.77,2.48.49,3.12-.55A3.05,3.05,0,0,1,176,222.91Z"/><path class="cls-22" d="M174.29,163.59l-19.2-11.08-30.63,17.68,53.47,30.87V170.55C177.93,167.87,176.3,164.75,174.29,163.59Z"/><path class="cls-22" d="M174.29,136.68l-19.2-11.09-30.63,17.68,53.47,30.88V143.63C177.93,141,176.3,137.84,174.29,136.68Z"/><path class="cls-22" d="M174.29,109.76l-19.2-11.09-30.63,17.68,53.47,30.88V116.71C177.93,114,176.3,110.92,174.29,109.76Z"/><path class="cls-22" d="M174.29,82.84l-19.2-11.09L124.46,89.44l53.47,30.87V89.79C177.93,87.11,176.3,84,174.29,82.84Z"/><path class="cls-22" d="M174.29,82.84,131.78,58.29l-7.32,4.23,53.47,30.87v-3.6C177.93,87.11,176.3,84,174.29,82.84Z"/><polygon class="cls-20" points="177.93 93.39 124.46 62.52 124.46 79.53 177.93 110.41 177.93 93.39"/><polygon class="cls-20" points="177.93 120.31 124.46 89.44 124.46 106.45 177.93 137.32 177.93 120.31"/><polygon class="cls-20" points="177.93 147.23 124.46 116.35 124.46 133.37 177.93 164.24 177.93 147.23"/><polygon class="cls-20" points="177.93 174.15 124.46 143.27 124.46 160.29 177.93 191.16 177.93 174.15"/><polygon class="cls-20" points="177.93 201.06 124.46 170.19 124.46 187.2 177.93 218.08 177.93 201.06"/><path class="cls-22" d="M173.22,104.34,132.94,81.09a4.93,4.93,0,0,1-2.06-3.94V72.6c0-1.52.92-2.22,2.06-1.56l40.28,23.25a5,5,0,0,1,2.05,3.94v4.56C175.27,104.3,174.35,105,173.22,104.34Z"/><path class="cls-24" d="M135,80.22a5,5,0,0,1-2.06-3.94V71.72a3.21,3.21,0,0,1,.08-.65l-.05,0c-1.14-.66-2.06,0-2.06,1.56v4.55a4.93,4.93,0,0,0,2.06,3.94l40.28,23.25a1.23,1.23,0,0,0,2-.9Z"/><path class="cls-2" d="M160.58,91.85l-24.24-14a1.74,1.74,0,0,1-.73-1.38h0c0-.54.33-.78.73-.55l24.24,14a1.73,1.73,0,0,1,.72,1.39h0C161.3,91.84,161,92.08,160.58,91.85Z"/><path class="cls-22" d="M173.22,131.09l-40.28-23.25a4.93,4.93,0,0,1-2.06-3.93V99.35c0-1.52.92-2.21,2.06-1.56l40.28,23.26a4.92,4.92,0,0,1,2.05,3.93v4.56C175.27,131.05,174.35,131.75,173.22,131.09Z"/><path class="cls-24" d="M135,107a5,5,0,0,1-2.06-3.94V98.48a3.22,3.22,0,0,1,.08-.66l-.05,0c-1.14-.65-2.06,0-2.06,1.56v4.56a4.93,4.93,0,0,0,2.06,3.93l40.28,23.25a1.23,1.23,0,0,0,2-.9Z"/><path class="cls-2" d="M160.58,118.61l-24.24-14a1.74,1.74,0,0,1-.73-1.38h0c0-.54.33-.78.73-.55l24.24,14a1.73,1.73,0,0,1,.72,1.39h0C161.3,118.59,161,118.84,160.58,118.61Z"/><path class="cls-22" d="M173.22,158.1l-40.28-23.26a4.93,4.93,0,0,1-2.06-3.93v-4.56c0-1.52.92-2.21,2.06-1.56l40.28,23.26a4.93,4.93,0,0,1,2.05,3.93v4.56C175.27,158.05,174.35,158.75,173.22,158.1Z"/><path class="cls-24" d="M135,134a5,5,0,0,1-2.06-3.94v-4.55a3.31,3.31,0,0,1,.08-.66l-.05,0c-1.14-.65-2.06,0-2.06,1.56v4.56a4.93,4.93,0,0,0,2.06,3.93l40.28,23.25a1.23,1.23,0,0,0,2-.9Z"/><path class="cls-25" d="M160.58,145.61l-24.24-14a1.74,1.74,0,0,1-.73-1.38h0c0-.53.33-.78.73-.55l24.24,14a1.73,1.73,0,0,1,.72,1.38h0C161.3,145.59,161,145.84,160.58,145.61Z"/><path class="cls-22" d="M173.22,185.35l-40.28-23.26a4.93,4.93,0,0,1-2.06-3.93V153.6c0-1.52.92-2.21,2.06-1.56l40.28,23.26a5,5,0,0,1,2.05,3.93v4.56C175.27,185.31,174.35,186,173.22,185.35Z"/><path class="cls-24" d="M135,161.22a5,5,0,0,1-2.06-3.94v-4.55a3.31,3.31,0,0,1,.08-.66l-.05,0c-1.14-.65-2.06,0-2.06,1.56v4.56a4.93,4.93,0,0,0,2.06,3.93l40.28,23.26a1.23,1.23,0,0,0,2-.91Z"/><path class="cls-26" d="M160.58,172.86l-24.24-14a1.74,1.74,0,0,1-.73-1.38h0c0-.53.33-.78.73-.55l24.24,14a1.73,1.73,0,0,1,.72,1.38h0C161.3,172.84,161,173.09,160.58,172.86Z"/><path class="cls-22" d="M173.22,212.06,132.94,188.8a4.92,4.92,0,0,1-2.06-3.93v-4.56c0-1.51.92-2.21,2.06-1.56L173.22,202a5,5,0,0,1,2.05,3.93v4.56C175.27,212,174.35,212.71,173.22,212.06Z"/><path class="cls-24" d="M135,187.93a5,5,0,0,1-2.06-3.93v-4.56a3.31,3.31,0,0,1,.08-.66l-.05,0c-1.14-.65-2.06,0-2.06,1.56v4.56a4.92,4.92,0,0,0,2.06,3.93l40.28,23.26a1.23,1.23,0,0,0,2-.91Z"/><path class="cls-25" d="M160.58,199.57l-24.24-14a1.74,1.74,0,0,1-.73-1.38h0c0-.53.33-.78.73-.55l24.24,14a1.73,1.73,0,0,1,.72,1.38h0C161.3,199.55,161,199.8,160.58,199.57Z"/><polygon class="cls-27" points="124.46 62.52 128.67 64.95 128.67 81.96 124.46 79.53 124.46 62.52"/><polygon class="cls-27" points="124.46 89.44 128.67 91.87 128.67 108.88 124.46 106.45 124.46 89.44"/><polygon class="cls-27" points="124.46 116.35 128.67 118.78 128.67 135.8 124.46 133.37 124.46 116.35"/><polygon class="cls-27" points="124.46 143.27 128.67 145.7 128.67 162.72 124.46 160.29 124.46 143.27"/><polygon class="cls-27" points="124.46 170.19 128.67 172.62 128.67 189.63 124.46 187.2 124.46 170.19"/><ellipse class="cls-25" cx="164.5" cy="93.04" rx="0.7" ry="1.21" transform="matrix(0.87, -0.5, 0.5, 0.87, -24.48, 94.73)"/><path class="cls-26" d="M169,95.62c0,.54-.39.76-.86.49a1.87,1.87,0,0,1-.85-1.47c0-.55.38-.77.85-.5A1.92,1.92,0,0,1,169,95.62Z"/><path class="cls-25" d="M172.58,97.71c0,.54-.38.76-.85.49a1.88,1.88,0,0,1-.85-1.48c0-.54.38-.76.85-.49A1.88,1.88,0,0,1,172.58,97.71Z"/><path class="cls-26" d="M165.35,120.44c0,.54-.38.76-.85.49a1.88,1.88,0,0,1-.85-1.48c0-.54.38-.76.85-.49A1.88,1.88,0,0,1,165.35,120.44Z"/><path class="cls-25" d="M169,122.52c0,.55-.39.77-.86.5a1.89,1.89,0,0,1-.85-1.48c0-.54.38-.76.85-.49A1.89,1.89,0,0,1,169,122.52Z"/><path class="cls-2" d="M172.58,124.61c0,.55-.38.77-.85.49a1.87,1.87,0,0,1-.85-1.47c0-.55.38-.77.85-.49A1.87,1.87,0,0,1,172.58,124.61Z"/><path class="cls-2" d="M165.35,147.55c0,.54-.38.76-.85.49a1.88,1.88,0,0,1-.85-1.48c0-.54.38-.76.85-.49A1.88,1.88,0,0,1,165.35,147.55Z"/><path class="cls-26" d="M169,149.63c0,.55-.39.77-.86.5a1.91,1.91,0,0,1-.85-1.48c0-.55.38-.77.85-.49A1.89,1.89,0,0,1,169,149.63Z"/><path class="cls-2" d="M172.58,151.72c0,.54-.38.76-.85.49a1.87,1.87,0,0,1-.85-1.47c0-.55.38-.77.85-.5A1.89,1.89,0,0,1,172.58,151.72Z"/><path class="cls-2" d="M165.35,174.26c0,.54-.38.76-.85.49a1.88,1.88,0,0,1-.85-1.48c0-.54.38-.76.85-.49A1.89,1.89,0,0,1,165.35,174.26Z"/><path class="cls-25" d="M169,176.35c0,.54-.39.76-.86.49a1.88,1.88,0,0,1-.85-1.48c0-.54.38-.76.85-.49A1.89,1.89,0,0,1,169,176.35Z"/><path class="cls-25" d="M172.58,178.43c0,.55-.38.77-.85.49a1.87,1.87,0,0,1-.85-1.47c0-.55.38-.77.85-.49A1.87,1.87,0,0,1,172.58,178.43Z"/><path class="cls-2" d="M165.35,201.34c0,.54-.38.76-.85.49a1.88,1.88,0,0,1-.85-1.48c0-.54.38-.76.85-.49A1.88,1.88,0,0,1,165.35,201.34Z"/><path class="cls-26" d="M169,203.42c0,.55-.39.77-.86.5a1.91,1.91,0,0,1-.85-1.48c0-.55.38-.77.85-.49A1.89,1.89,0,0,1,169,203.42Z"/><path class="cls-25" d="M172.58,205.51c0,.54-.38.76-.85.49a1.87,1.87,0,0,1-.85-1.47c0-.55.38-.77.85-.5A1.91,1.91,0,0,1,172.58,205.51Z"/><path class="cls-22" d="M191.08,213.3V92.86l.25-.15,50.33-29.06V184.1l-.25.14Zm1-119.87V211.57l48.59-28V65.38Z"/><path class="cls-22" d="M228.59,117.84l-22.57,13c-1.52.88-2.75-.05-2.75-2.07V116.29A6.57,6.57,0,0,1,206,111l22.57-13c1.51-.88,2.74,0,2.74,2.07V112.6A6.57,6.57,0,0,1,228.59,117.84Z"/><path class="cls-20" d="M229.13,97.77a3.59,3.59,0,0,1,.21,1.25v12.52a6.55,6.55,0,0,1-2.75,5.24l-22.57,13a2.36,2.36,0,0,1-.55.24,1.6,1.6,0,0,0,2.55.82l22.57-13a6.57,6.57,0,0,0,2.74-5.24V100.08C231.33,98.31,230.39,97.38,229.13,97.77Z"/><path class="cls-2" d="M224.46,110.31c.42-.24.76,0,.76.43v2.85a1.66,1.66,0,0,1-.76,1.31c-.41.24-.75,0-.75-.43v-2.85A1.67,1.67,0,0,1,224.46,110.31Z"/><path class="cls-25" d="M221.23,112.53c.41-.24.75,0,.75.44v2.49a1.67,1.67,0,0,1-.75,1.31c-.42.24-.76,0-.76-.43v-2.5A1.67,1.67,0,0,1,221.23,112.53Z"/><path class="cls-26" d="M218,111.62c.41-.24.75-.05.75.44v5.27a1.69,1.69,0,0,1-.75,1.31c-.42.24-.76,0-.76-.43v-5.28A1.67,1.67,0,0,1,218,111.62Z"/><path class="cls-25" d="M214.75,110.45c.42-.24.76,0,.76.43v8.32a1.67,1.67,0,0,1-.76,1.31c-.42.24-.76,0-.76-.44v-8.31A1.66,1.66,0,0,1,214.75,110.45Z"/><path class="cls-25" d="M211.51,113.19c.42-.24.76,0,.76.44v7.44a1.67,1.67,0,0,1-.76,1.31c-.42.24-.75.05-.75-.44V114.5A1.66,1.66,0,0,1,211.51,113.19Z"/><path class="cls-2" d="M208.27,118.46c.42-.24.76,0,.76.44v4a1.67,1.67,0,0,1-.76,1.31c-.41.24-.75,0-.75-.44v-4A1.69,1.69,0,0,1,208.27,118.46Z"/><path class="cls-26" d="M223.72,108.87c0,.47.33.66.74.43a1.67,1.67,0,0,0,.75-1.29c0-.47-.34-.67-.75-.43A1.64,1.64,0,0,0,223.72,108.87Z"/><ellipse class="cls-2" cx="224.46" cy="105.76" rx="1.05" ry="0.61" transform="translate(20.64 247.26) rotate(-60)"/><rect class="cls-2" x="306.93" y="41.54" width="3.44" height="66.63"/><path class="cls-5" d="M178.34,320.51l-34.52-19.93c-2.11-1.22-1.85-3.36.6-4.77l33.32-19.24c2.45-1.41,6.15-1.56,8.27-.34l34.51,19.93c2.12,1.22,1.85,3.36-.6,4.77L186.6,320.17C184.15,321.58,180.45,321.73,178.34,320.51Z"/><path class="cls-2" d="M181.94,312.4a9.21,9.21,0,0,1-4.58-1.1h0l-34.52-19.92a4.41,4.41,0,0,1-2.41-3.77,5.28,5.28,0,0,1,3-4.4L176.76,264c3.08-1.78,7.48-1.93,10.22-.34l34.52,19.92a4.41,4.41,0,0,1,2.41,3.77,5.28,5.28,0,0,1-3,4.4L187.58,311A11.54,11.54,0,0,1,181.94,312.4Zm-2.62-4.49c1.52.88,4.46.72,6.3-.34l33.32-19.24c.84-.49,1-.93,1.05-1a1.4,1.4,0,0,0-.45-.37L185,267c-1.52-.87-4.46-.72-6.3.35L145.4,286.61c-.84.48-1,.92-1.05,1a1.56,1.56,0,0,0,.45.37l34.52,19.93Z"/><path class="cls-23" d="M221.94,275.11h0v-11.9l-26.71,0L186,257.86c-2.12-1.22-5.82-1.07-8.27.34l-8.61,5-26.72,0v12.25a2.38,2.38,0,0,0,1.41,2.21l34.52,19.93c2.11,1.22,5.81,1.07,8.26-.34L219.92,278C221.33,277.15,222,276.1,221.94,275.11Z"/><path class="cls-28" d="M182.17,257a9.6,9.6,0,0,0-4.43,1.16l-8.61,5-26.72,0v12.25a2.38,2.38,0,0,0,1.41,2.21l34.52,19.93a7.48,7.48,0,0,0,3.83.82Z"/><path class="cls-25" d="M145.43,263.16h-3v12.25a2.38,2.38,0,0,0,1.41,2.21l1.61.93Z"/><path class="cls-20" d="M178.87,297.81a9.39,9.39,0,0,0,6.6-.08v-13.9h-6.6Z"/><path class="cls-29" d="M178.34,285.35l-34.52-19.93c-2.11-1.22-1.85-3.36.6-4.77l33.32-19.24c2.45-1.41,6.15-1.57,8.27-.34L220.52,261c2.12,1.22,1.85,3.36-.6,4.77L186.6,285C184.15,286.41,180.45,286.57,178.34,285.35Z"/><path class="cls-2" d="M219.92,263.42,186.6,282.66c-2.45,1.41-6.15,1.56-8.26.34l-34.52-19.92a3.25,3.25,0,0,1-1-.94c-.73,1.17-.4,2.44,1,3.28l34.52,19.93c2.11,1.22,5.81,1.06,8.26-.35l33.32-19.24c1.9-1.09,2.48-2.63,1.65-3.83A4.59,4.59,0,0,1,219.92,263.42Z"/><path class="cls-25" d="M209.24,278.26a3.06,3.06,0,0,1-1.39,2.41c-.77.45-1.4.08-1.4-.8a3.1,3.1,0,0,1,1.4-2.42C208.62,277,209.24,277.37,209.24,278.26Z"/><path class="cls-25" d="M213.73,275.67a3.07,3.07,0,0,1-1.4,2.41c-.77.45-1.39.09-1.39-.8a3.09,3.09,0,0,1,1.39-2.42C213.1,274.42,213.73,274.78,213.73,275.67Z"/><path class="cls-25" d="M218.21,273.08a3.06,3.06,0,0,1-1.39,2.41c-.77.45-1.4.09-1.4-.8a3.1,3.1,0,0,1,1.4-2.42C217.59,271.83,218.21,272.19,218.21,273.08Z"/><path class="cls-20" d="M180.38,273l-16.15-9.32c-1-.57-.87-1.57.27-2.24l15.6-9a4.31,4.31,0,0,1,3.87-.16l16.15,9.33c1,.57.86,1.57-.28,2.23l-15.6,9A4.29,4.29,0,0,1,180.38,273Z"/><path class="cls-25" d="M181.92,265.18l-2.23-1.29c-.14-.07-.12-.21,0-.3l2.15-1.25a.61.61,0,0,1,.54,0l2.23,1.29c.14.08.12.22,0,.31l-2.16,1.24A.61.61,0,0,1,181.92,265.18Z"/><path class="cls-23" d="M164.23,263.67l0,0,.23-.16,15.6-9a4.31,4.31,0,0,1,3.87-.16l16.1,9.3c.91-.66,1-1.55.05-2.07L184,252.27a4.31,4.31,0,0,0-3.87.16l-15.6,9C163.36,262.1,163.24,263.1,164.23,263.67Z"/><path class="cls-5" d="M304.81,232.59,270.3,212.67c-2.12-1.23-1.85-3.36.59-4.77l33.33-19.24c2.44-1.42,6.14-1.57,8.26-.35L347,208.24c2.12,1.22,1.85,3.36-.59,4.77l-33.33,19.24C310.63,233.66,306.93,233.81,304.81,232.59Z"/><path class="cls-2" d="M308.42,224.48a9.22,9.22,0,0,1-4.59-1.1h0l-34.51-19.92a4.4,4.4,0,0,1-2.41-3.77,5.29,5.29,0,0,1,3-4.4l33.33-19.24c3.08-1.78,7.47-1.93,10.22-.34L348,195.64a4.38,4.38,0,0,1,2.41,3.77,5.26,5.26,0,0,1-3,4.39L314.05,223A11.4,11.4,0,0,1,308.42,224.48ZM305.79,220c1.52.88,4.47.72,6.3-.34l33.33-19.24c.83-.49,1-.92,1-1A1.13,1.13,0,0,0,346,199L311.5,179.11c-1.52-.88-4.47-.72-6.3.34l-33.33,19.24c-.84.48-1,.92-1,1a1.16,1.16,0,0,0,.45.37L305.79,220Z"/><path class="cls-23" d="M348.41,187.2h0V175.29l-26.7,0-9.23-5.33c-2.12-1.22-5.82-1.07-8.26.35l-8.62,5-26.72,0v12.25a2.38,2.38,0,0,0,1.42,2.21l34.51,19.93c2.12,1.22,5.82,1.07,8.26-.34l33.33-19.24C347.81,189.23,348.49,188.18,348.41,187.2Z"/><path class="cls-30" d="M308.65,169.13a9.36,9.36,0,0,0-4.43,1.16l-8.62,5-26.72,0v12.25a2.38,2.38,0,0,0,1.42,2.21l34.51,19.93a7.51,7.51,0,0,0,3.84.82Z"/><path class="cls-25" d="M271.9,175.25h-3v12.25a2.38,2.38,0,0,0,1.42,2.21l1.6.93Z"/><path class="cls-20" d="M305.34,209.89a9.41,9.41,0,0,0,6.61-.08v-13.9h-6.61Z"/><path class="cls-31" d="M304.81,197.43,270.3,177.5c-2.12-1.22-1.85-3.36.59-4.77l33.33-19.24c2.44-1.41,6.14-1.56,8.26-.34L347,173.07c2.12,1.23,1.85,3.36-.59,4.78l-33.33,19.23C310.63,198.5,306.93,198.65,304.81,197.43Z"/><path class="cls-2" d="M346.4,175.5l-33.33,19.24c-2.44,1.41-6.14,1.57-8.26.34L270.3,175.16a3.18,3.18,0,0,1-1.06-.94c-.73,1.17-.4,2.44,1.06,3.28l34.51,19.93c2.12,1.22,5.82,1.07,8.26-.35l33.33-19.23c1.9-1.1,2.48-2.63,1.65-3.84A4.58,4.58,0,0,1,346.4,175.5Z"/><path class="cls-25" d="M335.72,190.34a3.07,3.07,0,0,1-1.4,2.41c-.77.45-1.39.09-1.39-.8a3.09,3.09,0,0,1,1.39-2.42C335.09,189.09,335.72,189.45,335.72,190.34Z"/><path class="cls-25" d="M340.2,187.75a3.06,3.06,0,0,1-1.39,2.41c-.77.45-1.4.09-1.4-.8a3.1,3.1,0,0,1,1.4-2.42C339.58,186.5,340.2,186.86,340.2,187.75Z"/><path class="cls-25" d="M344.69,185.16a3.07,3.07,0,0,1-1.4,2.41c-.77.45-1.39.09-1.39-.8a3.06,3.06,0,0,1,1.39-2.41C344.06,183.91,344.69,184.27,344.69,185.16Z"/><path class="cls-20" d="M306.85,185.07l-16.15-9.32c-1-.57-.87-1.57.28-2.23l15.59-9a4.31,4.31,0,0,1,3.87-.16l16.15,9.33c1,.57.87,1.57-.28,2.23l-15.59,9A4.28,4.28,0,0,1,306.85,185.07Z"/><path class="cls-25" d="M308.4,177.27,306.16,176c-.13-.08-.12-.22,0-.31l2.16-1.25a.59.59,0,0,1,.53,0l2.24,1.29c.14.08.12.22,0,.31l-2.16,1.24A.56.56,0,0,1,308.4,177.27Z"/><path class="cls-23" d="M290.7,175.75l.05,0a1.34,1.34,0,0,1,.23-.16l15.59-9a4.31,4.31,0,0,1,3.87-.16l16.1,9.3c.92-.65,1-1.54,0-2.07l-16.15-9.33a4.31,4.31,0,0,0-3.87.16l-15.59,9C289.83,174.18,289.71,175.18,290.7,175.75Z"/><path class="cls-5" d="M51.87,232.59,17.36,212.67c-2.12-1.23-1.86-3.36.59-4.77l33.32-19.24c2.45-1.42,6.15-1.57,8.27-.35l34.51,19.93c2.12,1.22,1.85,3.36-.59,4.77L60.13,232.25C57.69,233.66,54,233.81,51.87,232.59Z"/><path class="cls-2" d="M55.47,224.48a9.21,9.21,0,0,1-4.58-1.1h0L16.38,203.46A4.38,4.38,0,0,1,14,199.69a5.29,5.29,0,0,1,3-4.4l33.32-19.24c3.09-1.78,7.48-1.93,10.23-.34L95,195.64a4.38,4.38,0,0,1,2.41,3.77,5.28,5.28,0,0,1-3,4.39L61.11,223A11.41,11.41,0,0,1,55.47,224.48ZM52.85,220c1.52.88,4.46.72,6.3-.34l33.33-19.24c.83-.49,1-.92,1-1a1.23,1.23,0,0,0-.45-.38L58.56,179.11c-1.52-.88-4.47-.72-6.31.34L18.93,198.69c-.84.48-1,.92-1,1a1.16,1.16,0,0,0,.45.37L52.85,220Z"/><path class="cls-23" d="M95.47,187.2h0V175.29l-26.7,0-9.23-5.33c-2.12-1.22-5.82-1.07-8.27.35l-8.61,5-26.72,0v12.25a2.38,2.38,0,0,0,1.42,2.21l34.51,19.93c2.12,1.22,5.82,1.07,8.26-.34l33.33-19.24C94.87,189.23,95.55,188.18,95.47,187.2Z"/><path class="cls-32" d="M55.7,169.13a9.36,9.36,0,0,0-4.43,1.16l-8.61,5-26.72,0v12.25a2.38,2.38,0,0,0,1.42,2.21l34.51,19.93a7.5,7.5,0,0,0,3.83.82Z"/><path class="cls-25" d="M19,175.25h-3v12.25a2.38,2.38,0,0,0,1.42,2.21l1.6.93Z"/><path class="cls-20" d="M52.4,209.89a9.41,9.41,0,0,0,6.61-.08v-13.9H52.4Z"/><path class="cls-33" d="M51.87,197.43,17.36,177.5c-2.12-1.22-1.86-3.36.59-4.77l33.32-19.24c2.45-1.41,6.15-1.56,8.27-.34l34.51,19.92c2.12,1.23,1.85,3.36-.59,4.78L60.13,197.08C57.69,198.5,54,198.65,51.87,197.43Z"/><path class="cls-2" d="M93.46,175.5,60.13,194.74c-2.44,1.41-6.14,1.57-8.26.34L17.36,175.16a3.08,3.08,0,0,1-1.06-.94c-.73,1.17-.4,2.44,1.06,3.28l34.51,19.93c2.12,1.22,5.82,1.07,8.26-.35l33.33-19.23c1.9-1.1,2.47-2.63,1.65-3.84A4.67,4.67,0,0,1,93.46,175.5Z"/><path class="cls-25" d="M82.77,190.34a3.06,3.06,0,0,1-1.39,2.41c-.77.45-1.39.09-1.39-.8a3.09,3.09,0,0,1,1.39-2.42C82.15,189.09,82.77,189.45,82.77,190.34Z"/><path class="cls-25" d="M87.26,187.75a3.09,3.09,0,0,1-1.39,2.41c-.77.45-1.4.09-1.4-.8a3.1,3.1,0,0,1,1.4-2.42C86.63,186.5,87.26,186.86,87.26,187.75Z"/><path class="cls-25" d="M91.74,185.16a3.06,3.06,0,0,1-1.39,2.41c-.77.45-1.39.09-1.39-.8a3.06,3.06,0,0,1,1.39-2.41C91.12,183.91,91.74,184.27,91.74,185.16Z"/><path class="cls-20" d="M53.91,185.07l-16.15-9.32c-1-.57-.87-1.57.28-2.23l15.59-9a4.31,4.31,0,0,1,3.87-.16l16.15,9.33c1,.57.86,1.57-.28,2.23l-15.59,9A4.28,4.28,0,0,1,53.91,185.07Z"/><path class="cls-25" d="M55.45,177.27,53.22,176c-.14-.08-.12-.22,0-.31l2.16-1.25a.58.58,0,0,1,.53,0l2.24,1.29c.13.08.12.22,0,.31L56,177.24A.58.58,0,0,1,55.45,177.27Z"/><path class="cls-23" d="M37.76,175.75l0,0a2,2,0,0,1,.24-.16l15.59-9a4.31,4.31,0,0,1,3.87-.16l16.1,9.3c.92-.65,1-1.54.05-2.07L57.5,164.35a4.31,4.31,0,0,0-3.87.16l-15.59,9C36.89,174.18,36.77,175.18,37.76,175.75Z"/></g></g></svg>