<svg xmlns="http://www.w3.org/2000/svg" viewBox="0 0 100 100"><defs><style>.cls-1{fill:#535b82;}.cls-2{fill:#0abec8;}.cls-3{fill:#0aaac8;}.cls-4{fill:#0adcc8;}</style></defs><title>logo-nav</title><g id="Layer_2" data-name="Layer 2"><g id="Layer_1-2" data-name="Layer 1"><rect class="cls-1" width="100" height="100"/><path class="cls-2" d="M25.67,64.4l-9-15.68H38.9L50,68H31.94A7.24,7.24,0,0,1,25.67,64.4Z"/><polygon class="cls-3" points="61.17 48.72 50.04 68.01 38.9 48.72 50.04 29.43 61.17 48.72"/><path class="cls-2" d="M68.14,29.43H50L61.17,48.72H83.45l-9-15.67A7.23,7.23,0,0,0,68.14,29.43Z"/><path class="cls-4" d="M31.94,29.43H44.47L36.11,43.9H19.41l6.26-10.85A7.23,7.23,0,0,1,31.94,29.43Z"/><path class="cls-4" d="M64,53.54H80.67L74.4,64.4A7.24,7.24,0,0,1,68.14,68H55.6Z"/></g></g></svg>