<svg xmlns="http://www.w3.org/2000/svg" viewBox="0 0 400 100"><defs><style>.cls-1{fill:#535b82;}.cls-2{fill:#0abec8;}.cls-3{fill:#0aaac8;}.cls-4{fill:#0adcc8;}.cls-5{fill:#e7f9fa;}</style></defs><title>nav-long-logo</title><g id="Layer_2" data-name="Layer 2"><g id="Layer_1-2" data-name="Layer 1"><rect class="cls-1" width="400" height="100"/><path class="cls-2" d="M25.67,65.4l-9-15.68H38.9L50,69H31.94A7.24,7.24,0,0,1,25.67,65.4Z"/><polygon class="cls-3" points="61.17 49.72 50.04 69.01 38.9 49.72 50.04 30.43 61.17 49.72"/><path class="cls-2" d="M68.14,30.43H50L61.17,49.72H83.45l-9-15.67A7.23,7.23,0,0,0,68.14,30.43Z"/><path class="cls-4" d="M31.94,30.43H44.47L36.11,44.9H19.41l6.26-10.85A7.23,7.23,0,0,1,31.94,30.43Z"/><path class="cls-4" d="M64,54.54H80.67L74.4,65.4A7.24,7.24,0,0,1,68.14,69H55.6Z"/><path class="cls-5" d="M115.69,44H110.8c-2.54,0-3.81-1.16-3.81-3.5q0-4.59,7.87-4.59a28.46,28.46,0,0,1,10,1.75V32.39a32,32,0,0,0-10-1.54q-13.67,0-13.66,9.62,0,8.76,9.6,8.75h4.89q4.43,0,4.42,3.5c0,3.2-2.4,4.81-7.19,4.81a30.46,30.46,0,0,1-10.63-1.75V61a34.27,34.27,0,0,0,10.63,1.53q13,0,13-9.84Q125.9,44,115.69,44Z"/><path class="cls-5" d="M140,39.38q-10.77,0-10.78,11.22,0,11.73,12.49,11.74a35.43,35.43,0,0,0,7.39-.66V57.09a37.28,37.28,0,0,1-7,.66q-7.12,0-7.12-4.86h15.23a19.28,19.28,0,0,0,.2-2.84Q150.41,39.39,140,39.38Zm4.81,9.49H135q.39-4.93,5-4.94,4.81,0,4.81,4.76Z"/><path class="cls-5" d="M167.49,39.38A10.27,10.27,0,0,0,160,42.75l-.72-3.37h-4.48v23h5.8v-16a8.51,8.51,0,0,1,5.5-2.25q3.8,0,3.79,3.8V62.34h5.79V47.86Q175.64,39.39,167.49,39.38Z"/><path class="cls-5" d="M185.06,35.66h-4.28V56.15q0,6.2,5.77,6.19h5.16V57.75h-2.36q-2.78,0-2.78-3.22V44h5.14V39.38h-5.77Z"/><path class="cls-5" d="M208.37,39.38a9,9,0,0,0-6.93,2.93V31.07h-5.8V62.34h5.8v-16A8.54,8.54,0,0,1,207,44.06q3.78,0,3.78,3.8V62.34h5.79V47.86Q216.52,39.39,208.37,39.38Z"/><rect class="cls-5" x="221.99" y="31.07" width="5.79" height="4.59"/><rect class="cls-5" x="221.99" y="39.38" width="5.79" height="22.96"/><path class="cls-5" d="M246,39.38a10.25,10.25,0,0,0-7.52,3.37l-.72-3.37h-4.48v23H239v-16a8.54,8.54,0,0,1,5.51-2.25q3.78,0,3.78,3.8V62.34h5.8V47.86Q254.13,39.39,246,39.38Z"/><path class="cls-5" d="M258.5,50.73q0,11.18,10.23,11.17a14.1,14.1,0,0,0,5.56-1.09q0,5.23-6.26,5.24A24.25,24.25,0,0,1,260.47,65v4.59a23.67,23.67,0,0,0,7.52,1.1q12.09,0,12.09-10.06V40.32a61.32,61.32,0,0,0-9.66-.94Q258.5,39.38,258.5,50.73Zm15.79,5.18a10.86,10.86,0,0,1-4.88,1.18c-3.45,0-5.18-2.13-5.18-6.41s2-6.62,6-6.62a12.23,12.23,0,0,1,4.05.52Z"/><path class="cls-5" d="M296.26,48.45h-3.72c-1.82,0-2.73-.76-2.73-2.29s1.56-2.41,4.7-2.41a22.17,22.17,0,0,1,8.31,1.53V40.47a25.1,25.1,0,0,0-8.16-1.31q-10.21,0-10.21,7.22,0,6.88,7,6.88h4.15c1.68,0,2.52.77,2.52,2.3s-1.25,2.4-3.74,2.4a23.69,23.69,0,0,1-8.84-1.53v4.81a26.35,26.35,0,0,0,8.62,1.32q9.75,0,9.75-7.22Q303.91,48.46,296.26,48.45Z"/><path class="cls-5" d="M107.51,77.1H103.9V80h3.33v1.36H103.9v4h-1.61V75.73h5.22Z"/><path class="cls-5" d="M112.65,80a1.28,1.28,0,0,0-.81-.22,1.39,1.39,0,0,0-1.16.63,2.7,2.7,0,0,0-.47,1.7v3.31h-1.57V78.5h1.57v1.42h0a2.35,2.35,0,0,1,.7-1.13,1.56,1.56,0,0,1,1.06-.41,1.27,1.27,0,0,1,.65.13Z"/><path class="cls-5" d="M118.65,85.41h-1.52V84.33h0a2.27,2.27,0,0,1-2.1,1.24,2.18,2.18,0,0,1-1.59-.55,1.93,1.93,0,0,1-.58-1.47q0-2,2.25-2.28l2.06-.29q0-1.47-1.41-1.47a3.3,3.3,0,0,0-2.22.85V79a4.76,4.76,0,0,1,2.52-.65,2.3,2.3,0,0,1,2.62,2.58ZM117.14,82l-1.45.2a2.35,2.35,0,0,0-1,.33.93.93,0,0,0-.34.84.89.89,0,0,0,.31.71,1.2,1.2,0,0,0,.84.28,1.55,1.55,0,0,0,1.19-.5,1.79,1.79,0,0,0,.47-1.26Z"/><path class="cls-5" d="M130.47,85.41h-1.56V81.64a3.11,3.11,0,0,0-.31-1.57,1.13,1.13,0,0,0-1-.48,1.26,1.26,0,0,0-1,.61,2.55,2.55,0,0,0-.43,1.47v3.74h-1.57V81.52c0-1.29-.45-1.93-1.36-1.93a1.22,1.22,0,0,0-1,.58,2.47,2.47,0,0,0-.41,1.5v3.74h-1.57V78.5h1.57v1.09h0a2.41,2.41,0,0,1,2.18-1.25,2.1,2.1,0,0,1,1.26.39,2,2,0,0,1,.73,1,2.45,2.45,0,0,1,2.29-1.43c1.52,0,2.28.94,2.28,2.81Z"/><path class="cls-5" d="M137.82,82.38h-4.71a2,2,0,0,0,.59,1.48,2.22,2.22,0,0,0,1.55.52,3.44,3.44,0,0,0,2-.66V85a4.69,4.69,0,0,1-2.5.59,3.07,3.07,0,0,1-2.39-.94,3.76,3.76,0,0,1-.87-2.65,3.69,3.69,0,0,1,1-2.63,3.12,3.12,0,0,1,2.37-1,2.72,2.72,0,0,1,2.19.91,3.77,3.77,0,0,1,.78,2.53Zm-1.51-1.11a2,2,0,0,0-.4-1.31,1.34,1.34,0,0,0-1.08-.47,1.57,1.57,0,0,0-1.15.49,2.26,2.26,0,0,0-.57,1.29Z"/><path class="cls-5" d="M145.34,85.57a3.4,3.4,0,0,1-2.55-1,3.47,3.47,0,0,1-1-2.56,3.42,3.42,0,0,1,3.68-3.7,3.32,3.32,0,0,1,2.52,1,4.18,4.18,0,0,1-.07,5.29A3.51,3.51,0,0,1,145.34,85.57Zm.08-6a1.76,1.76,0,0,0-1.45.64,2.63,2.63,0,0,0-.54,1.76,2.55,2.55,0,0,0,.54,1.72,1.83,1.83,0,0,0,1.45.62,1.75,1.75,0,0,0,1.42-.61,3.39,3.39,0,0,0,0-3.51A1.7,1.7,0,0,0,145.42,79.59Z"/><path class="cls-5" d="M153.79,76.46a1.34,1.34,0,0,0-.72-.19q-1.14,0-1.14,1.29v.94h1.61v1.23h-1.6v5.68h-1.57V79.73h-1.18V78.5h1.18V77.38a2.16,2.16,0,0,1,.72-1.72,2.6,2.6,0,0,1,1.79-.64,2.75,2.75,0,0,1,.91.13Z"/><path class="cls-5" d="M168,85.41h-1.56V81.64a3.11,3.11,0,0,0-.31-1.57,1.14,1.14,0,0,0-1-.48,1.24,1.24,0,0,0-1,.61,2.48,2.48,0,0,0-.43,1.47v3.74H162V81.52c0-1.29-.46-1.93-1.36-1.93a1.24,1.24,0,0,0-1,.58,2.54,2.54,0,0,0-.4,1.5v3.74h-1.57V78.5h1.57v1.09h0a2.41,2.41,0,0,1,2.18-1.25,2,2,0,0,1,2,1.43,2.44,2.44,0,0,1,2.29-1.43c1.52,0,2.28.94,2.28,2.81Z"/><path class="cls-5" d="M170.23,77.05a.91.91,0,0,1-.65-.25.81.81,0,0,1-.28-.63.85.85,0,0,1,.28-.65.91.91,0,0,1,.65-.25,1,1,0,0,1,.68.25.88.88,0,0,1,.28.65.84.84,0,0,1-.28.62A1,1,0,0,1,170.23,77.05Zm.78,8.36h-1.56V78.5H171Z"/><path class="cls-5" d="M178.79,85.41h-1.56V81.52c0-1.29-.46-1.94-1.37-1.94a1.48,1.48,0,0,0-1.18.54,2,2,0,0,0-.47,1.35v3.94h-1.57V78.5h1.57v1.15h0a2.45,2.45,0,0,1,2.24-1.31,2.09,2.09,0,0,1,1.72.73,3.27,3.27,0,0,1,.59,2.12Z"/><path class="cls-5" d="M186.57,85.41H185V84.24h0a2.7,2.7,0,0,1-4.37.4,3.85,3.85,0,0,1-.77-2.52,4.22,4.22,0,0,1,.85-2.75,2.78,2.78,0,0,1,2.26-1,2.15,2.15,0,0,1,2,1.12h0V75.18h1.56ZM185,82.25v-.9a1.76,1.76,0,0,0-.48-1.25,1.75,1.75,0,0,0-2.6.14,2.9,2.9,0,0,0-.51,1.82,2.56,2.56,0,0,0,.49,1.66,1.55,1.55,0,0,0,1.3.61,1.65,1.65,0,0,0,1.3-.59A2.24,2.24,0,0,0,185,82.25Z"/></g></g></svg>