<svg id="Capa_1" enable-background="new 0 0 480.04 480.04" height="512" viewBox="0 0 480.04 480.04" width="512" xmlns="http://www.w3.org/2000/svg"><path d="m280 352.025h-32v-16h-16v16h-32c-13.248.015-23.985 10.752-24 24v48c.015 13.248 10.752 23.985 24 24h15.435c-.878 6.516-2.819 12.844-5.746 18.732l-.844 1.69c-1.976 3.952-.374 8.757 3.577 10.733 1.111.555 2.336.845 3.578.845h48c4.418 0 8-3.582 8-8 0-1.242-.289-2.467-.845-3.578l-.844-1.689c-2.927-5.888-4.868-12.216-5.746-18.733h15.435c13.248-.015 23.985-10.752 24-24v-48c-.015-13.248-10.752-23.985-24-24zm-51.909 112c1.729-5.194 2.896-10.558 3.48-16h16.858c.584 5.442 1.751 10.806 3.48 16zm59.909-40c-.005 4.416-3.584 7.995-8 8h-80c-4.416-.005-7.995-3.584-8-8v-8h96zm0-24h-96v-24c.005-4.416 3.584-7.995 8-8h80c4.416.005 7.995 3.584 8 8z"/><path d="m104 352.025h-32v-17.36l121.475-22.777c3.784-.71 6.525-4.013 6.525-7.863v-48h-16v41.36l-121.475 22.777c-3.784.71-6.525 4.013-6.525 7.863v24h-32c-13.248.015-23.985 10.752-24 24v48c.015 13.248 10.752 23.985 24 24h15.435c-.878 6.516-2.819 12.844-5.746 18.732l-.844 1.69c-1.976 3.952-.374 8.757 3.577 10.733 1.111.555 2.336.845 3.578.845h48c4.418 0 8-3.582 8-8 0-1.242-.289-2.467-.845-3.578l-.844-1.689c-2.927-5.888-4.868-12.216-5.746-18.733h15.435c13.248-.015 23.985-10.752 24-24v-48c-.015-13.248-10.752-23.985-24-24zm-51.909 112c1.729-5.194 2.896-10.558 3.48-16h16.858c.584 5.442 1.751 10.806 3.48 16zm59.909-40c-.005 4.416-3.584 7.995-8 8h-80c-4.416-.005-7.995-3.584-8-8v-8h96zm0-24h-96v-24c.005-4.416 3.584-7.995 8-8h80c4.416.005 7.995 3.584 8 8z"/><path d="m456 352.025h-32v-24c0-3.85-2.741-7.153-6.525-7.863l-121.475-22.777v-41.36h-16v48c0 3.85 2.741 7.153 6.525 7.863l121.475 22.777v17.36h-32c-13.248.015-23.985 10.752-24 24v48c.015 13.248 10.752 23.985 24 24h15.435c-.878 6.516-2.819 12.844-5.746 18.732l-.844 1.69c-1.976 3.952-.374 8.757 3.577 10.733 1.111.555 2.336.845 3.578.845h48c4.418 0 8-3.582 8-8 0-1.242-.289-2.467-.845-3.578l-.844-1.689c-2.927-5.888-4.868-12.216-5.746-18.733h15.435c13.248-.015 23.985-10.752 24-24v-48c-.015-13.248-10.752-23.985-24-24zm-51.909 112c1.729-5.194 2.896-10.558 3.48-16h16.858c.584 5.442 1.751 10.806 3.48 16zm59.909-40c-.005 4.416-3.584 7.995-8 8h-80c-4.416-.005-7.995-3.584-8-8v-8h96zm0-24h-96v-24c.005-4.416 3.584-7.995 8-8h80c4.416.005 7.995 3.584 8 8z"/><path d="m320 200.025h16v16h-16z"/><path d="m320 152.025h16v16h-16z"/><path d="m320 104.025h16v16h-16z"/><path d="m439.354 40.15c-4.353-26.155-29.086-43.829-55.241-39.476-16.408 2.731-30.233 13.76-36.541 29.151-5.514 2.637-10.062 6.94-13 12.3-16.764 5.465-28.694 20.348-30.381 37.9h-16.191v-32h-16v32h-8c-4.418 0-8 3.582-8 8v136h-50.957c-2.224-5.101-3.731-10.485-4.478-16h15.435c13.248-.015 23.985-10.752 24-24v-48c-.015-13.248-10.752-23.985-24-24h-80c-13.248.015-23.985 10.752-24 24v48c.015 13.248 10.752 23.985 24 24h15.435c-.746 5.515-2.253 10.899-4.478 16h-60.333c-4.418-12.497-18.131-19.046-30.627-14.627-12.497 4.418-19.046 18.131-14.627 30.627 4.418 12.497 18.131 19.046 30.627 14.627 6.835-2.416 12.211-7.793 14.627-14.627h306.752c4.418 12.497 18.131 19.046 30.627 14.627 12.497-4.418 19.046-18.131 14.627-30.627-4.418-12.497-18.131-19.046-30.627-14.627-6.835 2.416-12.211 7.793-14.627 14.627h-25.376v-96h68c24.301.022 44.018-19.659 44.04-43.96.021-23.03-17.721-42.18-40.686-43.915zm-375.354 199.875c-4.418 0-8-3.582-8-8s3.582-8 8-8 8 3.582 8 8c-.005 4.416-3.584 7.995-8 8zm64-104c.005-4.416 3.584-7.995 8-8h80c4.416.005 7.995 3.584 8 8v24h-96zm36.091 88c1.729-5.194 2.896-10.558 3.48-16h16.858c.584 5.442 1.751 10.806 3.48 16zm27.909-32h-56c-4.416-.005-7.995-3.584-8-8v-8h96v8c-.005 4.416-3.584 7.995-8 8zm224 32c4.418 0 8 3.582 8 8s-3.582 8-8 8-8-3.582-8-8c.005-4.416 3.584-7.995 8-8zm-64 0h-80v-32h80zm0-48h-80v-32h80zm0-48h-80v-32h80zm84-16h-68v-24c0-4.418-3.582-8-8-8h-39.685c1.702-11.514 10.315-20.793 21.671-23.345 2.683-.585 4.878-2.505 5.815-5.086 1.389-3.833 4.493-6.794 8.387-8 2.521-.766 4.504-2.725 5.3-5.237 5.327-16.851 23.305-26.194 40.156-20.868 13.317 4.21 22.366 16.57 22.356 30.536 0 4.418 3.582 8 8 8h4c15.464 0 28 12.536 28 28s-12.536 28-28 28z"/><path d="m416 80.025h32v16h-32z"/><path d="m384 80.025h16v16h-16z"/><path d="m232 304.025h16v16h-16z"/><path d="m232 256.025h16v32h-16z"/></svg>